M48
; DRILL file {KiCad 5.1.8-5.1.8} date Mon Dec  6 17:43:12 2021
; FORMAT={-:-/ absolute / metric / decimal}
; #@! TF.CreationDate,2021-12-06T17:43:12+01:00
; #@! TF.GenerationSoftware,Kicad,Pcbnew,5.1.8-5.1.8
; #@! TF.FileFunction,Plated,1,2,PTH
FMAT,2
METRIC
T1C0.700
T2C0.750
T3C0.800
T4C0.900
T5C1.000
T6C1.200
%
G90
G05
T1
X119.424Y-109.992
X119.424Y-112.492
X109.924Y-109.492
X109.924Y-111.992
X103.424Y-91.992
X105.924Y-91.992
X97.924Y-94.992
X97.924Y-97.492
X109.424Y-121.992
X111.924Y-121.992
X124.924Y-87.492
X124.924Y-89.992
X114.924Y-87.492
X114.924Y-89.992
X168.924Y-113.492
X168.924Y-115.992
X179.924Y-91.992
X182.424Y-91.992
X129.424Y-88.992
X129.424Y-91.492
X103.424Y-85.492
X105.924Y-85.492
X163.924Y-91.992
X166.424Y-91.992
X171.924Y-86.992
X174.424Y-86.992
X132.924Y-88.992
X132.924Y-91.492
T2
X120.424Y-87.452
X120.424Y-88.722
X120.424Y-89.992
T3
X172.674Y-113.492
X172.674Y-123.652
X157.264Y-86.992
X167.424Y-86.992
X103.424Y-95.872
X103.424Y-103.492
X105.964Y-95.872
X105.964Y-103.492
X108.504Y-95.872
X108.504Y-103.492
X111.044Y-95.872
X111.044Y-103.492
X127.424Y-108.992
X129.924Y-108.992
X152.424Y-91.492
X152.424Y-93.992
X129.924Y-114.992
X129.924Y-117.492
X134.924Y-107.492
X134.924Y-109.992
X120.424Y-95.492
X120.424Y-97.992
X123.924Y-112.332
X123.924Y-122.492
X149.424Y-108.492
X151.924Y-108.492
X126.924Y-95.872
X126.924Y-103.492
X129.464Y-95.872
X129.464Y-103.492
X132.004Y-95.872
X132.004Y-103.492
X134.544Y-95.872
X134.544Y-103.492
X137.084Y-95.872
X137.084Y-103.492
X139.624Y-95.872
X139.624Y-103.492
X142.164Y-95.872
X142.164Y-103.492
X144.704Y-95.872
X144.704Y-103.492
X147.244Y-95.872
X147.244Y-103.492
X164.924Y-113.492
X164.924Y-123.652
X161.424Y-113.492
X161.424Y-123.652
X105.924Y-107.492
X105.924Y-117.652
X190.424Y-90.492
X195.304Y-90.492
X188.264Y-85.492
X198.424Y-85.492
X136.764Y-91.492
X146.924Y-91.492
X94.424Y-113.992
X96.924Y-113.992
X151.924Y-98.492
X151.924Y-100.992
X163.924Y-95.872
X163.924Y-103.492
X166.464Y-95.872
X166.464Y-103.492
X169.004Y-95.872
X169.004Y-103.492
X171.544Y-95.872
X171.544Y-103.492
X101.924Y-113.832
X101.924Y-123.992
X114.924Y-92.992
X114.924Y-103.152
X158.924Y-92.992
X158.924Y-103.152
X93.924Y-87.492
X93.924Y-97.652
X157.424Y-113.492
X157.424Y-123.652
X114.924Y-106.992
X114.924Y-117.152
X179.924Y-95.872
X179.924Y-103.492
X182.464Y-95.872
X182.464Y-103.492
X185.004Y-95.872
X185.004Y-103.492
X187.544Y-95.872
X187.544Y-103.492
X190.084Y-95.872
X190.084Y-103.492
X192.624Y-95.872
X192.624Y-103.492
X195.164Y-95.872
X195.164Y-103.492
X197.704Y-95.872
X197.704Y-103.492
T4
X161.384Y-108.492
X163.924Y-108.492
T5
X137.424Y-82.992
X139.964Y-82.992
X118.924Y-82.992
X121.464Y-82.992
X180.924Y-109.992
X183.464Y-109.992
X105.924Y-120.992
X105.924Y-123.532
X179.924Y-118.492
X184.924Y-118.492
X130.384Y-82.992
X132.924Y-82.992
T6
X142.924Y-113.992
X142.924Y-121.492
T0
M30
