%FSLAX45Y45*%
G04 Gerber Fmt 4.5, Leading zero omitted, Abs format (unit mm)*
G04 Created by KiCad (PCBNEW 5.1.8-5.1.8) date 2021-12-06 17:43:24*
%MOMM*%
%LPD*%
G01*
G04 APERTURE LIST*
%TA.AperFunction,Profile*%
%ADD10C,0.100000*%
%TD*%
%ADD11C,0.200000*%
%ADD12C,0.300000*%
G04 APERTURE END LIST*
D10*
X20742400Y-7749200D02*
X20742400Y-12649200D01*
X9042400Y-7749200D02*
X20742400Y-7749200D01*
X9042400Y-12649200D02*
X9042400Y-7749200D01*
X20742400Y-12649200D02*
X9042400Y-12649200D01*
D11*
X11907400Y-10964200D02*
X11977400Y-11034200D01*
X11977400Y-10964200D02*
X11907400Y-11034200D01*
X11907400Y-11214200D02*
X11977400Y-11284200D01*
X11977400Y-11214200D02*
X11907400Y-11284200D01*
X10957400Y-10914200D02*
X11027400Y-10984200D01*
X11027400Y-10914200D02*
X10957400Y-10984200D01*
X10957400Y-11164200D02*
X11027400Y-11234200D01*
X11027400Y-11164200D02*
X10957400Y-11234200D01*
X10307400Y-9164200D02*
X10377400Y-9234200D01*
X10377400Y-9164200D02*
X10307400Y-9234200D01*
X10557400Y-9164200D02*
X10627400Y-9234200D01*
X10627400Y-9164200D02*
X10557400Y-9234200D01*
X9757400Y-9464200D02*
X9827400Y-9534200D01*
X9827400Y-9464200D02*
X9757400Y-9534200D01*
X9757400Y-9714200D02*
X9827400Y-9784200D01*
X9827400Y-9714200D02*
X9757400Y-9784200D01*
X10907400Y-12164200D02*
X10977400Y-12234200D01*
X10977400Y-12164200D02*
X10907400Y-12234200D01*
X11157400Y-12164200D02*
X11227400Y-12234200D01*
X11227400Y-12164200D02*
X11157400Y-12234200D01*
X12457400Y-8714200D02*
X12527400Y-8784200D01*
X12527400Y-8714200D02*
X12457400Y-8784200D01*
X12457400Y-8964200D02*
X12527400Y-9034200D01*
X12527400Y-8964200D02*
X12457400Y-9034200D01*
X11457400Y-8714200D02*
X11527400Y-8784200D01*
X11527400Y-8714200D02*
X11457400Y-8784200D01*
X11457400Y-8964200D02*
X11527400Y-9034200D01*
X11527400Y-8964200D02*
X11457400Y-9034200D01*
X16857400Y-11314200D02*
X16927400Y-11384200D01*
X16927400Y-11314200D02*
X16857400Y-11384200D01*
X16857400Y-11564200D02*
X16927400Y-11634200D01*
X16927400Y-11564200D02*
X16857400Y-11634200D01*
X17957400Y-9164200D02*
X18027400Y-9234200D01*
X18027400Y-9164200D02*
X17957400Y-9234200D01*
X18207400Y-9164200D02*
X18277400Y-9234200D01*
X18277400Y-9164200D02*
X18207400Y-9234200D01*
X12907400Y-8864200D02*
X12977400Y-8934200D01*
X12977400Y-8864200D02*
X12907400Y-8934200D01*
X12907400Y-9114200D02*
X12977400Y-9184200D01*
X12977400Y-9114200D02*
X12907400Y-9184200D01*
X10307400Y-8514200D02*
X10377400Y-8584200D01*
X10377400Y-8514200D02*
X10307400Y-8584200D01*
X10557400Y-8514200D02*
X10627400Y-8584200D01*
X10627400Y-8514200D02*
X10557400Y-8584200D01*
X16357400Y-9164200D02*
X16427400Y-9234200D01*
X16427400Y-9164200D02*
X16357400Y-9234200D01*
X16607400Y-9164200D02*
X16677400Y-9234200D01*
X16677400Y-9164200D02*
X16607400Y-9234200D01*
X17157400Y-8664200D02*
X17227400Y-8734200D01*
X17227400Y-8664200D02*
X17157400Y-8734200D01*
X17407400Y-8664200D02*
X17477400Y-8734200D01*
X17477400Y-8664200D02*
X17407400Y-8734200D01*
X13257400Y-8864200D02*
X13327400Y-8934200D01*
X13327400Y-8864200D02*
X13257400Y-8934200D01*
X13257400Y-9114200D02*
X13327400Y-9184200D01*
X13327400Y-9114200D02*
X13257400Y-9184200D01*
X12079900Y-8745200D02*
G75*
G03*
X12079900Y-8745200I-37500J0D01*
G01*
X12079900Y-8872200D02*
G75*
G03*
X12079900Y-8872200I-37500J0D01*
G01*
X12079900Y-8999200D02*
G75*
G03*
X12079900Y-8999200I-37500J0D01*
G01*
X17267400Y-11309200D02*
X17267400Y-11389200D01*
X17227400Y-11349200D02*
X17307400Y-11349200D01*
X17267400Y-12325200D02*
X17267400Y-12405200D01*
X17227400Y-12365200D02*
X17307400Y-12365200D01*
X15726400Y-8659200D02*
X15726400Y-8739200D01*
X15686400Y-8699200D02*
X15766400Y-8699200D01*
X16742400Y-8659200D02*
X16742400Y-8739200D01*
X16702400Y-8699200D02*
X16782400Y-8699200D01*
X10342400Y-9547200D02*
X10342400Y-9627200D01*
X10302400Y-9587200D02*
X10382400Y-9587200D01*
X10342400Y-10309200D02*
X10342400Y-10389200D01*
X10302400Y-10349200D02*
X10382400Y-10349200D01*
X10596400Y-9547200D02*
X10596400Y-9627200D01*
X10556400Y-9587200D02*
X10636400Y-9587200D01*
X10596400Y-10309200D02*
X10596400Y-10389200D01*
X10556400Y-10349200D02*
X10636400Y-10349200D01*
X10850400Y-9547200D02*
X10850400Y-9627200D01*
X10810400Y-9587200D02*
X10890400Y-9587200D01*
X10850400Y-10309200D02*
X10850400Y-10389200D01*
X10810400Y-10349200D02*
X10890400Y-10349200D01*
X11104400Y-9547200D02*
X11104400Y-9627200D01*
X11064400Y-9587200D02*
X11144400Y-9587200D01*
X11104400Y-10309200D02*
X11104400Y-10389200D01*
X11064400Y-10349200D02*
X11144400Y-10349200D01*
X12742400Y-10859200D02*
X12742400Y-10939200D01*
X12702400Y-10899200D02*
X12782400Y-10899200D01*
X12992400Y-10859200D02*
X12992400Y-10939200D01*
X12952400Y-10899200D02*
X13032400Y-10899200D01*
X15242400Y-9109200D02*
X15242400Y-9189200D01*
X15202400Y-9149200D02*
X15282400Y-9149200D01*
X15242400Y-9359200D02*
X15242400Y-9439200D01*
X15202400Y-9399200D02*
X15282400Y-9399200D01*
X12992400Y-11459200D02*
X12992400Y-11539200D01*
X12952400Y-11499200D02*
X13032400Y-11499200D01*
X12992400Y-11709200D02*
X12992400Y-11789200D01*
X12952400Y-11749200D02*
X13032400Y-11749200D01*
X13492400Y-10709200D02*
X13492400Y-10789200D01*
X13452400Y-10749200D02*
X13532400Y-10749200D01*
X13492400Y-10959200D02*
X13492400Y-11039200D01*
X13452400Y-10999200D02*
X13532400Y-10999200D01*
X12042400Y-9509200D02*
X12042400Y-9589200D01*
X12002400Y-9549200D02*
X12082400Y-9549200D01*
X12042400Y-9759200D02*
X12042400Y-9839200D01*
X12002400Y-9799200D02*
X12082400Y-9799200D01*
X12392400Y-11193200D02*
X12392400Y-11273200D01*
X12352400Y-11233200D02*
X12432400Y-11233200D01*
X12392400Y-12209200D02*
X12392400Y-12289200D01*
X12352400Y-12249200D02*
X12432400Y-12249200D01*
X14942400Y-10809200D02*
X14942400Y-10889200D01*
X14902400Y-10849200D02*
X14982400Y-10849200D01*
X15192400Y-10809200D02*
X15192400Y-10889200D01*
X15152400Y-10849200D02*
X15232400Y-10849200D01*
X12692400Y-9547200D02*
X12692400Y-9627200D01*
X12652400Y-9587200D02*
X12732400Y-9587200D01*
X12692400Y-10309200D02*
X12692400Y-10389200D01*
X12652400Y-10349200D02*
X12732400Y-10349200D01*
X12946400Y-9547200D02*
X12946400Y-9627200D01*
X12906400Y-9587200D02*
X12986400Y-9587200D01*
X12946400Y-10309200D02*
X12946400Y-10389200D01*
X12906400Y-10349200D02*
X12986400Y-10349200D01*
X13200400Y-9547200D02*
X13200400Y-9627200D01*
X13160400Y-9587200D02*
X13240400Y-9587200D01*
X13200400Y-10309200D02*
X13200400Y-10389200D01*
X13160400Y-10349200D02*
X13240400Y-10349200D01*
X13454400Y-9547200D02*
X13454400Y-9627200D01*
X13414400Y-9587200D02*
X13494400Y-9587200D01*
X13454400Y-10309200D02*
X13454400Y-10389200D01*
X13414400Y-10349200D02*
X13494400Y-10349200D01*
X13708400Y-9547200D02*
X13708400Y-9627200D01*
X13668400Y-9587200D02*
X13748400Y-9587200D01*
X13708400Y-10309200D02*
X13708400Y-10389200D01*
X13668400Y-10349200D02*
X13748400Y-10349200D01*
X13962400Y-9547200D02*
X13962400Y-9627200D01*
X13922400Y-9587200D02*
X14002400Y-9587200D01*
X13962400Y-10309200D02*
X13962400Y-10389200D01*
X13922400Y-10349200D02*
X14002400Y-10349200D01*
X14216400Y-9547200D02*
X14216400Y-9627200D01*
X14176400Y-9587200D02*
X14256400Y-9587200D01*
X14216400Y-10309200D02*
X14216400Y-10389200D01*
X14176400Y-10349200D02*
X14256400Y-10349200D01*
X14470400Y-9547200D02*
X14470400Y-9627200D01*
X14430400Y-9587200D02*
X14510400Y-9587200D01*
X14470400Y-10309200D02*
X14470400Y-10389200D01*
X14430400Y-10349200D02*
X14510400Y-10349200D01*
X14724400Y-9547200D02*
X14724400Y-9627200D01*
X14684400Y-9587200D02*
X14764400Y-9587200D01*
X14724400Y-10309200D02*
X14724400Y-10389200D01*
X14684400Y-10349200D02*
X14764400Y-10349200D01*
X16492400Y-11309200D02*
X16492400Y-11389200D01*
X16452400Y-11349200D02*
X16532400Y-11349200D01*
X16492400Y-12325200D02*
X16492400Y-12405200D01*
X16452400Y-12365200D02*
X16532400Y-12365200D01*
X16142400Y-11309200D02*
X16142400Y-11389200D01*
X16102400Y-11349200D02*
X16182400Y-11349200D01*
X16142400Y-12325200D02*
X16142400Y-12405200D01*
X16102400Y-12365200D02*
X16182400Y-12365200D01*
X10592400Y-10709200D02*
X10592400Y-10789200D01*
X10552400Y-10749200D02*
X10632400Y-10749200D01*
X10592400Y-11725200D02*
X10592400Y-11805200D01*
X10552400Y-11765200D02*
X10632400Y-11765200D01*
X19042400Y-9009200D02*
X19042400Y-9089200D01*
X19002400Y-9049200D02*
X19082400Y-9049200D01*
X19530400Y-9009200D02*
X19530400Y-9089200D01*
X19490400Y-9049200D02*
X19570400Y-9049200D01*
X18826400Y-8509200D02*
X18826400Y-8589200D01*
X18786400Y-8549200D02*
X18866400Y-8549200D01*
X19842400Y-8509200D02*
X19842400Y-8589200D01*
X19802400Y-8549200D02*
X19882400Y-8549200D01*
X13676400Y-9109200D02*
X13676400Y-9189200D01*
X13636400Y-9149200D02*
X13716400Y-9149200D01*
X14692400Y-9109200D02*
X14692400Y-9189200D01*
X14652400Y-9149200D02*
X14732400Y-9149200D01*
X9442400Y-11359200D02*
X9442400Y-11439200D01*
X9402400Y-11399200D02*
X9482400Y-11399200D01*
X9692400Y-11359200D02*
X9692400Y-11439200D01*
X9652400Y-11399200D02*
X9732400Y-11399200D01*
X15192400Y-9809200D02*
X15192400Y-9889200D01*
X15152400Y-9849200D02*
X15232400Y-9849200D01*
X15192400Y-10059200D02*
X15192400Y-10139200D01*
X15152400Y-10099200D02*
X15232400Y-10099200D01*
X16392400Y-9547200D02*
X16392400Y-9627200D01*
X16352400Y-9587200D02*
X16432400Y-9587200D01*
X16392400Y-10309200D02*
X16392400Y-10389200D01*
X16352400Y-10349200D02*
X16432400Y-10349200D01*
X16646400Y-9547200D02*
X16646400Y-9627200D01*
X16606400Y-9587200D02*
X16686400Y-9587200D01*
X16646400Y-10309200D02*
X16646400Y-10389200D01*
X16606400Y-10349200D02*
X16686400Y-10349200D01*
X16900400Y-9547200D02*
X16900400Y-9627200D01*
X16860400Y-9587200D02*
X16940400Y-9587200D01*
X16900400Y-10309200D02*
X16900400Y-10389200D01*
X16860400Y-10349200D02*
X16940400Y-10349200D01*
X17154400Y-9547200D02*
X17154400Y-9627200D01*
X17114400Y-9587200D02*
X17194400Y-9587200D01*
X17154400Y-10309200D02*
X17154400Y-10389200D01*
X17114400Y-10349200D02*
X17194400Y-10349200D01*
X10192400Y-11343200D02*
X10192400Y-11423200D01*
X10152400Y-11383200D02*
X10232400Y-11383200D01*
X10192400Y-12359200D02*
X10192400Y-12439200D01*
X10152400Y-12399200D02*
X10232400Y-12399200D01*
X11492400Y-9259200D02*
X11492400Y-9339200D01*
X11452400Y-9299200D02*
X11532400Y-9299200D01*
X11492400Y-10275200D02*
X11492400Y-10355200D01*
X11452400Y-10315200D02*
X11532400Y-10315200D01*
X15892400Y-9259200D02*
X15892400Y-9339200D01*
X15852400Y-9299200D02*
X15932400Y-9299200D01*
X15892400Y-10275200D02*
X15892400Y-10355200D01*
X15852400Y-10315200D02*
X15932400Y-10315200D01*
X9392400Y-8709200D02*
X9392400Y-8789200D01*
X9352400Y-8749200D02*
X9432400Y-8749200D01*
X9392400Y-9725200D02*
X9392400Y-9805200D01*
X9352400Y-9765200D02*
X9432400Y-9765200D01*
X15742400Y-11309200D02*
X15742400Y-11389200D01*
X15702400Y-11349200D02*
X15782400Y-11349200D01*
X15742400Y-12325200D02*
X15742400Y-12405200D01*
X15702400Y-12365200D02*
X15782400Y-12365200D01*
X11492400Y-10659200D02*
X11492400Y-10739200D01*
X11452400Y-10699200D02*
X11532400Y-10699200D01*
X11492400Y-11675200D02*
X11492400Y-11755200D01*
X11452400Y-11715200D02*
X11532400Y-11715200D01*
X17992400Y-9547200D02*
X17992400Y-9627200D01*
X17952400Y-9587200D02*
X18032400Y-9587200D01*
X17992400Y-10309200D02*
X17992400Y-10389200D01*
X17952400Y-10349200D02*
X18032400Y-10349200D01*
X18246400Y-9547200D02*
X18246400Y-9627200D01*
X18206400Y-9587200D02*
X18286400Y-9587200D01*
X18246400Y-10309200D02*
X18246400Y-10389200D01*
X18206400Y-10349200D02*
X18286400Y-10349200D01*
X18500400Y-9547200D02*
X18500400Y-9627200D01*
X18460400Y-9587200D02*
X18540400Y-9587200D01*
X18500400Y-10309200D02*
X18500400Y-10389200D01*
X18460400Y-10349200D02*
X18540400Y-10349200D01*
X18754400Y-9547200D02*
X18754400Y-9627200D01*
X18714400Y-9587200D02*
X18794400Y-9587200D01*
X18754400Y-10309200D02*
X18754400Y-10389200D01*
X18714400Y-10349200D02*
X18794400Y-10349200D01*
X19008400Y-9547200D02*
X19008400Y-9627200D01*
X18968400Y-9587200D02*
X19048400Y-9587200D01*
X19008400Y-10309200D02*
X19008400Y-10389200D01*
X18968400Y-10349200D02*
X19048400Y-10349200D01*
X19262400Y-9547200D02*
X19262400Y-9627200D01*
X19222400Y-9587200D02*
X19302400Y-9587200D01*
X19262400Y-10309200D02*
X19262400Y-10389200D01*
X19222400Y-10349200D02*
X19302400Y-10349200D01*
X19516400Y-9547200D02*
X19516400Y-9627200D01*
X19476400Y-9587200D02*
X19556400Y-9587200D01*
X19516400Y-10309200D02*
X19516400Y-10389200D01*
X19476400Y-10349200D02*
X19556400Y-10349200D01*
X19770400Y-9547200D02*
X19770400Y-9627200D01*
X19730400Y-9587200D02*
X19810400Y-9587200D01*
X19770400Y-10309200D02*
X19770400Y-10389200D01*
X19730400Y-10349200D02*
X19810400Y-10349200D01*
X16170220Y-10881020D02*
X16170220Y-10817380D01*
X16106580Y-10817380D01*
X16106580Y-10881020D01*
X16170220Y-10881020D01*
X16424220Y-10881020D02*
X16424220Y-10817380D01*
X16360580Y-10817380D01*
X16360580Y-10881020D01*
X16424220Y-10881020D01*
X13742400Y-8349200D02*
X13792400Y-8299200D01*
X13742400Y-8249200D01*
X13692400Y-8299200D01*
X13742400Y-8349200D01*
X13996400Y-8349200D02*
X14046400Y-8299200D01*
X13996400Y-8249200D01*
X13946400Y-8299200D01*
X13996400Y-8349200D01*
X11892400Y-8349200D02*
X11942400Y-8299200D01*
X11892400Y-8249200D01*
X11842400Y-8299200D01*
X11892400Y-8349200D01*
X12146400Y-8349200D02*
X12196400Y-8299200D01*
X12146400Y-8249200D01*
X12096400Y-8299200D01*
X12146400Y-8349200D01*
X18092400Y-11049200D02*
X18142400Y-10999200D01*
X18092400Y-10949200D01*
X18042400Y-10999200D01*
X18092400Y-11049200D01*
X18346400Y-11049200D02*
X18396400Y-10999200D01*
X18346400Y-10949200D01*
X18296400Y-10999200D01*
X18346400Y-11049200D01*
X10592400Y-12149200D02*
X10642400Y-12099200D01*
X10592400Y-12049200D01*
X10542400Y-12099200D01*
X10592400Y-12149200D01*
X10592400Y-12403200D02*
X10642400Y-12353200D01*
X10592400Y-12303200D01*
X10542400Y-12353200D01*
X10592400Y-12403200D01*
X17992400Y-11899200D02*
X18042400Y-11849200D01*
X17992400Y-11799200D01*
X17942400Y-11849200D01*
X17992400Y-11899200D01*
X18492400Y-11899200D02*
X18542400Y-11849200D01*
X18492400Y-11799200D01*
X18442400Y-11849200D01*
X18492400Y-11899200D01*
X13038400Y-8349200D02*
X13088400Y-8299200D01*
X13038400Y-8249200D01*
X12988400Y-8299200D01*
X13038400Y-8349200D01*
X13292400Y-8349200D02*
X13342400Y-8299200D01*
X13292400Y-8249200D01*
X13242400Y-8299200D01*
X13292400Y-8349200D01*
X14232400Y-11339200D02*
X14352400Y-11459200D01*
X14352400Y-11339200D02*
X14232400Y-11459200D01*
X14352400Y-11399200D02*
G75*
G03*
X14352400Y-11399200I-60000J0D01*
G01*
X14232400Y-12089200D02*
X14352400Y-12209200D01*
X14352400Y-12089200D02*
X14232400Y-12209200D01*
X14352400Y-12149200D02*
G75*
G03*
X14352400Y-12149200I-60000J0D01*
G01*
D12*
X9323828Y-13119914D02*
X9323828Y-12819914D01*
X9395257Y-12819914D01*
X9438114Y-12834200D01*
X9466686Y-12862771D01*
X9480971Y-12891343D01*
X9495257Y-12948486D01*
X9495257Y-12991343D01*
X9480971Y-13048486D01*
X9466686Y-13077057D01*
X9438114Y-13105629D01*
X9395257Y-13119914D01*
X9323828Y-13119914D01*
X9623828Y-13119914D02*
X9623828Y-12919914D01*
X9623828Y-12977057D02*
X9638114Y-12948486D01*
X9652400Y-12934200D01*
X9680971Y-12919914D01*
X9709543Y-12919914D01*
X9809543Y-13119914D02*
X9809543Y-12919914D01*
X9809543Y-12819914D02*
X9795257Y-12834200D01*
X9809543Y-12848486D01*
X9823828Y-12834200D01*
X9809543Y-12819914D01*
X9809543Y-12848486D01*
X9995257Y-13119914D02*
X9966686Y-13105629D01*
X9952400Y-13077057D01*
X9952400Y-12819914D01*
X10152400Y-13119914D02*
X10123828Y-13105629D01*
X10109543Y-13077057D01*
X10109543Y-12819914D01*
X10495257Y-13119914D02*
X10495257Y-12819914D01*
X10595257Y-13034200D01*
X10695257Y-12819914D01*
X10695257Y-13119914D01*
X10966686Y-13119914D02*
X10966686Y-12962771D01*
X10952400Y-12934200D01*
X10923828Y-12919914D01*
X10866686Y-12919914D01*
X10838114Y-12934200D01*
X10966686Y-13105629D02*
X10938114Y-13119914D01*
X10866686Y-13119914D01*
X10838114Y-13105629D01*
X10823828Y-13077057D01*
X10823828Y-13048486D01*
X10838114Y-13019914D01*
X10866686Y-13005629D01*
X10938114Y-13005629D01*
X10966686Y-12991343D01*
X11109543Y-12919914D02*
X11109543Y-13219914D01*
X11109543Y-12934200D02*
X11138114Y-12919914D01*
X11195257Y-12919914D01*
X11223828Y-12934200D01*
X11238114Y-12948486D01*
X11252400Y-12977057D01*
X11252400Y-13062771D01*
X11238114Y-13091343D01*
X11223828Y-13105629D01*
X11195257Y-13119914D01*
X11138114Y-13119914D01*
X11109543Y-13105629D01*
X11380971Y-13091343D02*
X11395257Y-13105629D01*
X11380971Y-13119914D01*
X11366686Y-13105629D01*
X11380971Y-13091343D01*
X11380971Y-13119914D01*
X11380971Y-12934200D02*
X11395257Y-12948486D01*
X11380971Y-12962771D01*
X11366686Y-12948486D01*
X11380971Y-12934200D01*
X11380971Y-12962771D01*
X8967400Y-13579200D02*
X9037400Y-13649200D01*
X9037400Y-13579200D02*
X8967400Y-13649200D01*
X9380971Y-13449914D02*
X9409543Y-13449914D01*
X9438114Y-13464200D01*
X9452400Y-13478486D01*
X9466686Y-13507057D01*
X9480971Y-13564200D01*
X9480971Y-13635629D01*
X9466686Y-13692771D01*
X9452400Y-13721343D01*
X9438114Y-13735629D01*
X9409543Y-13749914D01*
X9380971Y-13749914D01*
X9352400Y-13735629D01*
X9338114Y-13721343D01*
X9323828Y-13692771D01*
X9309543Y-13635629D01*
X9309543Y-13564200D01*
X9323828Y-13507057D01*
X9338114Y-13478486D01*
X9352400Y-13464200D01*
X9380971Y-13449914D01*
X9609543Y-13721343D02*
X9623828Y-13735629D01*
X9609543Y-13749914D01*
X9595257Y-13735629D01*
X9609543Y-13721343D01*
X9609543Y-13749914D01*
X9723828Y-13449914D02*
X9923828Y-13449914D01*
X9795257Y-13749914D01*
X10095257Y-13449914D02*
X10123828Y-13449914D01*
X10152400Y-13464200D01*
X10166686Y-13478486D01*
X10180971Y-13507057D01*
X10195257Y-13564200D01*
X10195257Y-13635629D01*
X10180971Y-13692771D01*
X10166686Y-13721343D01*
X10152400Y-13735629D01*
X10123828Y-13749914D01*
X10095257Y-13749914D01*
X10066686Y-13735629D01*
X10052400Y-13721343D01*
X10038114Y-13692771D01*
X10023828Y-13635629D01*
X10023828Y-13564200D01*
X10038114Y-13507057D01*
X10052400Y-13478486D01*
X10066686Y-13464200D01*
X10095257Y-13449914D01*
X10323828Y-13749914D02*
X10323828Y-13549914D01*
X10323828Y-13578486D02*
X10338114Y-13564200D01*
X10366686Y-13549914D01*
X10409543Y-13549914D01*
X10438114Y-13564200D01*
X10452400Y-13592771D01*
X10452400Y-13749914D01*
X10452400Y-13592771D02*
X10466686Y-13564200D01*
X10495257Y-13549914D01*
X10538114Y-13549914D01*
X10566686Y-13564200D01*
X10580971Y-13592771D01*
X10580971Y-13749914D01*
X10723828Y-13749914D02*
X10723828Y-13549914D01*
X10723828Y-13578486D02*
X10738114Y-13564200D01*
X10766686Y-13549914D01*
X10809543Y-13549914D01*
X10838114Y-13564200D01*
X10852400Y-13592771D01*
X10852400Y-13749914D01*
X10852400Y-13592771D02*
X10866686Y-13564200D01*
X10895257Y-13549914D01*
X10938114Y-13549914D01*
X10966686Y-13564200D01*
X10980971Y-13592771D01*
X10980971Y-13749914D01*
X11566686Y-13435629D02*
X11309543Y-13821343D01*
X11952400Y-13449914D02*
X11980971Y-13449914D01*
X12009543Y-13464200D01*
X12023828Y-13478486D01*
X12038114Y-13507057D01*
X12052400Y-13564200D01*
X12052400Y-13635629D01*
X12038114Y-13692771D01*
X12023828Y-13721343D01*
X12009543Y-13735629D01*
X11980971Y-13749914D01*
X11952400Y-13749914D01*
X11923828Y-13735629D01*
X11909543Y-13721343D01*
X11895257Y-13692771D01*
X11880971Y-13635629D01*
X11880971Y-13564200D01*
X11895257Y-13507057D01*
X11909543Y-13478486D01*
X11923828Y-13464200D01*
X11952400Y-13449914D01*
X12180971Y-13721343D02*
X12195257Y-13735629D01*
X12180971Y-13749914D01*
X12166686Y-13735629D01*
X12180971Y-13721343D01*
X12180971Y-13749914D01*
X12380971Y-13449914D02*
X12409543Y-13449914D01*
X12438114Y-13464200D01*
X12452400Y-13478486D01*
X12466686Y-13507057D01*
X12480971Y-13564200D01*
X12480971Y-13635629D01*
X12466686Y-13692771D01*
X12452400Y-13721343D01*
X12438114Y-13735629D01*
X12409543Y-13749914D01*
X12380971Y-13749914D01*
X12352400Y-13735629D01*
X12338114Y-13721343D01*
X12323828Y-13692771D01*
X12309543Y-13635629D01*
X12309543Y-13564200D01*
X12323828Y-13507057D01*
X12338114Y-13478486D01*
X12352400Y-13464200D01*
X12380971Y-13449914D01*
X12595257Y-13478486D02*
X12609543Y-13464200D01*
X12638114Y-13449914D01*
X12709543Y-13449914D01*
X12738114Y-13464200D01*
X12752400Y-13478486D01*
X12766686Y-13507057D01*
X12766686Y-13535629D01*
X12752400Y-13578486D01*
X12580971Y-13749914D01*
X12766686Y-13749914D01*
X12938114Y-13578486D02*
X12909543Y-13564200D01*
X12895257Y-13549914D01*
X12880971Y-13521343D01*
X12880971Y-13507057D01*
X12895257Y-13478486D01*
X12909543Y-13464200D01*
X12938114Y-13449914D01*
X12995257Y-13449914D01*
X13023828Y-13464200D01*
X13038114Y-13478486D01*
X13052400Y-13507057D01*
X13052400Y-13521343D01*
X13038114Y-13549914D01*
X13023828Y-13564200D01*
X12995257Y-13578486D01*
X12938114Y-13578486D01*
X12909543Y-13592771D01*
X12895257Y-13607057D01*
X12880971Y-13635629D01*
X12880971Y-13692771D01*
X12895257Y-13721343D01*
X12909543Y-13735629D01*
X12938114Y-13749914D01*
X12995257Y-13749914D01*
X13023828Y-13735629D01*
X13038114Y-13721343D01*
X13052400Y-13692771D01*
X13052400Y-13635629D01*
X13038114Y-13607057D01*
X13023828Y-13592771D01*
X12995257Y-13578486D01*
X13166686Y-13449914D02*
X13166686Y-13507057D01*
X13280971Y-13449914D02*
X13280971Y-13507057D01*
X13723828Y-13864200D02*
X13709543Y-13849914D01*
X13680971Y-13807057D01*
X13666686Y-13778486D01*
X13652400Y-13735629D01*
X13638114Y-13664200D01*
X13638114Y-13607057D01*
X13652400Y-13535629D01*
X13666686Y-13492771D01*
X13680971Y-13464200D01*
X13709543Y-13421343D01*
X13723828Y-13407057D01*
X13823828Y-13478486D02*
X13838114Y-13464200D01*
X13866686Y-13449914D01*
X13938114Y-13449914D01*
X13966686Y-13464200D01*
X13980971Y-13478486D01*
X13995257Y-13507057D01*
X13995257Y-13535629D01*
X13980971Y-13578486D01*
X13809543Y-13749914D01*
X13995257Y-13749914D01*
X14166686Y-13578486D02*
X14138114Y-13564200D01*
X14123828Y-13549914D01*
X14109543Y-13521343D01*
X14109543Y-13507057D01*
X14123828Y-13478486D01*
X14138114Y-13464200D01*
X14166686Y-13449914D01*
X14223828Y-13449914D01*
X14252400Y-13464200D01*
X14266686Y-13478486D01*
X14280971Y-13507057D01*
X14280971Y-13521343D01*
X14266686Y-13549914D01*
X14252400Y-13564200D01*
X14223828Y-13578486D01*
X14166686Y-13578486D01*
X14138114Y-13592771D01*
X14123828Y-13607057D01*
X14109543Y-13635629D01*
X14109543Y-13692771D01*
X14123828Y-13721343D01*
X14138114Y-13735629D01*
X14166686Y-13749914D01*
X14223828Y-13749914D01*
X14252400Y-13735629D01*
X14266686Y-13721343D01*
X14280971Y-13692771D01*
X14280971Y-13635629D01*
X14266686Y-13607057D01*
X14252400Y-13592771D01*
X14223828Y-13578486D01*
X14638114Y-13749914D02*
X14638114Y-13449914D01*
X14766686Y-13749914D02*
X14766686Y-13592771D01*
X14752400Y-13564200D01*
X14723828Y-13549914D01*
X14680971Y-13549914D01*
X14652400Y-13564200D01*
X14638114Y-13578486D01*
X14952400Y-13749914D02*
X14923828Y-13735629D01*
X14909543Y-13721343D01*
X14895257Y-13692771D01*
X14895257Y-13607057D01*
X14909543Y-13578486D01*
X14923828Y-13564200D01*
X14952400Y-13549914D01*
X14995257Y-13549914D01*
X15023828Y-13564200D01*
X15038114Y-13578486D01*
X15052400Y-13607057D01*
X15052400Y-13692771D01*
X15038114Y-13721343D01*
X15023828Y-13735629D01*
X14995257Y-13749914D01*
X14952400Y-13749914D01*
X15223828Y-13749914D02*
X15195257Y-13735629D01*
X15180971Y-13707057D01*
X15180971Y-13449914D01*
X15452400Y-13735629D02*
X15423828Y-13749914D01*
X15366686Y-13749914D01*
X15338114Y-13735629D01*
X15323828Y-13707057D01*
X15323828Y-13592771D01*
X15338114Y-13564200D01*
X15366686Y-13549914D01*
X15423828Y-13549914D01*
X15452400Y-13564200D01*
X15466686Y-13592771D01*
X15466686Y-13621343D01*
X15323828Y-13649914D01*
X15580971Y-13735629D02*
X15609543Y-13749914D01*
X15666686Y-13749914D01*
X15695257Y-13735629D01*
X15709543Y-13707057D01*
X15709543Y-13692771D01*
X15695257Y-13664200D01*
X15666686Y-13649914D01*
X15623828Y-13649914D01*
X15595257Y-13635629D01*
X15580971Y-13607057D01*
X15580971Y-13592771D01*
X15595257Y-13564200D01*
X15623828Y-13549914D01*
X15666686Y-13549914D01*
X15695257Y-13564200D01*
X15809543Y-13864200D02*
X15823828Y-13849914D01*
X15852400Y-13807057D01*
X15866686Y-13778486D01*
X15880971Y-13735629D01*
X15895257Y-13664200D01*
X15895257Y-13607057D01*
X15880971Y-13535629D01*
X15866686Y-13492771D01*
X15852400Y-13464200D01*
X15823828Y-13421343D01*
X15809543Y-13407057D01*
X9037400Y-14010200D02*
G75*
G03*
X9037400Y-14010200I-37500J0D01*
G01*
X9380971Y-13845914D02*
X9409543Y-13845914D01*
X9438114Y-13860200D01*
X9452400Y-13874486D01*
X9466686Y-13903057D01*
X9480971Y-13960200D01*
X9480971Y-14031629D01*
X9466686Y-14088771D01*
X9452400Y-14117343D01*
X9438114Y-14131629D01*
X9409543Y-14145914D01*
X9380971Y-14145914D01*
X9352400Y-14131629D01*
X9338114Y-14117343D01*
X9323828Y-14088771D01*
X9309543Y-14031629D01*
X9309543Y-13960200D01*
X9323828Y-13903057D01*
X9338114Y-13874486D01*
X9352400Y-13860200D01*
X9380971Y-13845914D01*
X9609543Y-14117343D02*
X9623828Y-14131629D01*
X9609543Y-14145914D01*
X9595257Y-14131629D01*
X9609543Y-14117343D01*
X9609543Y-14145914D01*
X9723828Y-13845914D02*
X9923828Y-13845914D01*
X9795257Y-14145914D01*
X10180971Y-13845914D02*
X10038114Y-13845914D01*
X10023828Y-13988771D01*
X10038114Y-13974486D01*
X10066686Y-13960200D01*
X10138114Y-13960200D01*
X10166686Y-13974486D01*
X10180971Y-13988771D01*
X10195257Y-14017343D01*
X10195257Y-14088771D01*
X10180971Y-14117343D01*
X10166686Y-14131629D01*
X10138114Y-14145914D01*
X10066686Y-14145914D01*
X10038114Y-14131629D01*
X10023828Y-14117343D01*
X10323828Y-14145914D02*
X10323828Y-13945914D01*
X10323828Y-13974486D02*
X10338114Y-13960200D01*
X10366686Y-13945914D01*
X10409543Y-13945914D01*
X10438114Y-13960200D01*
X10452400Y-13988771D01*
X10452400Y-14145914D01*
X10452400Y-13988771D02*
X10466686Y-13960200D01*
X10495257Y-13945914D01*
X10538114Y-13945914D01*
X10566686Y-13960200D01*
X10580971Y-13988771D01*
X10580971Y-14145914D01*
X10723828Y-14145914D02*
X10723828Y-13945914D01*
X10723828Y-13974486D02*
X10738114Y-13960200D01*
X10766686Y-13945914D01*
X10809543Y-13945914D01*
X10838114Y-13960200D01*
X10852400Y-13988771D01*
X10852400Y-14145914D01*
X10852400Y-13988771D02*
X10866686Y-13960200D01*
X10895257Y-13945914D01*
X10938114Y-13945914D01*
X10966686Y-13960200D01*
X10980971Y-13988771D01*
X10980971Y-14145914D01*
X11566686Y-13831629D02*
X11309543Y-14217343D01*
X11952400Y-13845914D02*
X11980971Y-13845914D01*
X12009543Y-13860200D01*
X12023828Y-13874486D01*
X12038114Y-13903057D01*
X12052400Y-13960200D01*
X12052400Y-14031629D01*
X12038114Y-14088771D01*
X12023828Y-14117343D01*
X12009543Y-14131629D01*
X11980971Y-14145914D01*
X11952400Y-14145914D01*
X11923828Y-14131629D01*
X11909543Y-14117343D01*
X11895257Y-14088771D01*
X11880971Y-14031629D01*
X11880971Y-13960200D01*
X11895257Y-13903057D01*
X11909543Y-13874486D01*
X11923828Y-13860200D01*
X11952400Y-13845914D01*
X12180971Y-14117343D02*
X12195257Y-14131629D01*
X12180971Y-14145914D01*
X12166686Y-14131629D01*
X12180971Y-14117343D01*
X12180971Y-14145914D01*
X12380971Y-13845914D02*
X12409543Y-13845914D01*
X12438114Y-13860200D01*
X12452400Y-13874486D01*
X12466686Y-13903057D01*
X12480971Y-13960200D01*
X12480971Y-14031629D01*
X12466686Y-14088771D01*
X12452400Y-14117343D01*
X12438114Y-14131629D01*
X12409543Y-14145914D01*
X12380971Y-14145914D01*
X12352400Y-14131629D01*
X12338114Y-14117343D01*
X12323828Y-14088771D01*
X12309543Y-14031629D01*
X12309543Y-13960200D01*
X12323828Y-13903057D01*
X12338114Y-13874486D01*
X12352400Y-13860200D01*
X12380971Y-13845914D01*
X12580971Y-13845914D02*
X12766686Y-13845914D01*
X12666686Y-13960200D01*
X12709543Y-13960200D01*
X12738114Y-13974486D01*
X12752400Y-13988771D01*
X12766686Y-14017343D01*
X12766686Y-14088771D01*
X12752400Y-14117343D01*
X12738114Y-14131629D01*
X12709543Y-14145914D01*
X12623828Y-14145914D01*
X12595257Y-14131629D01*
X12580971Y-14117343D01*
X12952400Y-13845914D02*
X12980971Y-13845914D01*
X13009543Y-13860200D01*
X13023828Y-13874486D01*
X13038114Y-13903057D01*
X13052400Y-13960200D01*
X13052400Y-14031629D01*
X13038114Y-14088771D01*
X13023828Y-14117343D01*
X13009543Y-14131629D01*
X12980971Y-14145914D01*
X12952400Y-14145914D01*
X12923828Y-14131629D01*
X12909543Y-14117343D01*
X12895257Y-14088771D01*
X12880971Y-14031629D01*
X12880971Y-13960200D01*
X12895257Y-13903057D01*
X12909543Y-13874486D01*
X12923828Y-13860200D01*
X12952400Y-13845914D01*
X13166686Y-13845914D02*
X13166686Y-13903057D01*
X13280971Y-13845914D02*
X13280971Y-13903057D01*
X13723828Y-14260200D02*
X13709543Y-14245914D01*
X13680971Y-14203057D01*
X13666686Y-14174486D01*
X13652400Y-14131629D01*
X13638114Y-14060200D01*
X13638114Y-14003057D01*
X13652400Y-13931629D01*
X13666686Y-13888771D01*
X13680971Y-13860200D01*
X13709543Y-13817343D01*
X13723828Y-13803057D01*
X13809543Y-13845914D02*
X13995257Y-13845914D01*
X13895257Y-13960200D01*
X13938114Y-13960200D01*
X13966686Y-13974486D01*
X13980971Y-13988771D01*
X13995257Y-14017343D01*
X13995257Y-14088771D01*
X13980971Y-14117343D01*
X13966686Y-14131629D01*
X13938114Y-14145914D01*
X13852400Y-14145914D01*
X13823828Y-14131629D01*
X13809543Y-14117343D01*
X14352400Y-14145914D02*
X14352400Y-13845914D01*
X14480971Y-14145914D02*
X14480971Y-13988771D01*
X14466686Y-13960200D01*
X14438114Y-13945914D01*
X14395257Y-13945914D01*
X14366686Y-13960200D01*
X14352400Y-13974486D01*
X14666686Y-14145914D02*
X14638114Y-14131629D01*
X14623828Y-14117343D01*
X14609543Y-14088771D01*
X14609543Y-14003057D01*
X14623828Y-13974486D01*
X14638114Y-13960200D01*
X14666686Y-13945914D01*
X14709543Y-13945914D01*
X14738114Y-13960200D01*
X14752400Y-13974486D01*
X14766686Y-14003057D01*
X14766686Y-14088771D01*
X14752400Y-14117343D01*
X14738114Y-14131629D01*
X14709543Y-14145914D01*
X14666686Y-14145914D01*
X14938114Y-14145914D02*
X14909543Y-14131629D01*
X14895257Y-14103057D01*
X14895257Y-13845914D01*
X15166686Y-14131629D02*
X15138114Y-14145914D01*
X15080971Y-14145914D01*
X15052400Y-14131629D01*
X15038114Y-14103057D01*
X15038114Y-13988771D01*
X15052400Y-13960200D01*
X15080971Y-13945914D01*
X15138114Y-13945914D01*
X15166686Y-13960200D01*
X15180971Y-13988771D01*
X15180971Y-14017343D01*
X15038114Y-14045914D01*
X15295257Y-14131629D02*
X15323828Y-14145914D01*
X15380971Y-14145914D01*
X15409543Y-14131629D01*
X15423828Y-14103057D01*
X15423828Y-14088771D01*
X15409543Y-14060200D01*
X15380971Y-14045914D01*
X15338114Y-14045914D01*
X15309543Y-14031629D01*
X15295257Y-14003057D01*
X15295257Y-13988771D01*
X15309543Y-13960200D01*
X15338114Y-13945914D01*
X15380971Y-13945914D01*
X15409543Y-13960200D01*
X15523828Y-14260200D02*
X15538114Y-14245914D01*
X15566686Y-14203057D01*
X15580971Y-14174486D01*
X15595257Y-14131629D01*
X15609543Y-14060200D01*
X15609543Y-14003057D01*
X15595257Y-13931629D01*
X15580971Y-13888771D01*
X15566686Y-13860200D01*
X15538114Y-13817343D01*
X15523828Y-13803057D01*
X8997400Y-14366200D02*
X8997400Y-14446200D01*
X8957400Y-14406200D02*
X9037400Y-14406200D01*
X9380971Y-14241914D02*
X9409543Y-14241914D01*
X9438114Y-14256200D01*
X9452400Y-14270486D01*
X9466686Y-14299057D01*
X9480971Y-14356200D01*
X9480971Y-14427629D01*
X9466686Y-14484771D01*
X9452400Y-14513343D01*
X9438114Y-14527629D01*
X9409543Y-14541914D01*
X9380971Y-14541914D01*
X9352400Y-14527629D01*
X9338114Y-14513343D01*
X9323828Y-14484771D01*
X9309543Y-14427629D01*
X9309543Y-14356200D01*
X9323828Y-14299057D01*
X9338114Y-14270486D01*
X9352400Y-14256200D01*
X9380971Y-14241914D01*
X9609543Y-14513343D02*
X9623828Y-14527629D01*
X9609543Y-14541914D01*
X9595257Y-14527629D01*
X9609543Y-14513343D01*
X9609543Y-14541914D01*
X9795257Y-14370486D02*
X9766686Y-14356200D01*
X9752400Y-14341914D01*
X9738114Y-14313343D01*
X9738114Y-14299057D01*
X9752400Y-14270486D01*
X9766686Y-14256200D01*
X9795257Y-14241914D01*
X9852400Y-14241914D01*
X9880971Y-14256200D01*
X9895257Y-14270486D01*
X9909543Y-14299057D01*
X9909543Y-14313343D01*
X9895257Y-14341914D01*
X9880971Y-14356200D01*
X9852400Y-14370486D01*
X9795257Y-14370486D01*
X9766686Y-14384771D01*
X9752400Y-14399057D01*
X9738114Y-14427629D01*
X9738114Y-14484771D01*
X9752400Y-14513343D01*
X9766686Y-14527629D01*
X9795257Y-14541914D01*
X9852400Y-14541914D01*
X9880971Y-14527629D01*
X9895257Y-14513343D01*
X9909543Y-14484771D01*
X9909543Y-14427629D01*
X9895257Y-14399057D01*
X9880971Y-14384771D01*
X9852400Y-14370486D01*
X10095257Y-14241914D02*
X10123828Y-14241914D01*
X10152400Y-14256200D01*
X10166686Y-14270486D01*
X10180971Y-14299057D01*
X10195257Y-14356200D01*
X10195257Y-14427629D01*
X10180971Y-14484771D01*
X10166686Y-14513343D01*
X10152400Y-14527629D01*
X10123828Y-14541914D01*
X10095257Y-14541914D01*
X10066686Y-14527629D01*
X10052400Y-14513343D01*
X10038114Y-14484771D01*
X10023828Y-14427629D01*
X10023828Y-14356200D01*
X10038114Y-14299057D01*
X10052400Y-14270486D01*
X10066686Y-14256200D01*
X10095257Y-14241914D01*
X10323828Y-14541914D02*
X10323828Y-14341914D01*
X10323828Y-14370486D02*
X10338114Y-14356200D01*
X10366686Y-14341914D01*
X10409543Y-14341914D01*
X10438114Y-14356200D01*
X10452400Y-14384771D01*
X10452400Y-14541914D01*
X10452400Y-14384771D02*
X10466686Y-14356200D01*
X10495257Y-14341914D01*
X10538114Y-14341914D01*
X10566686Y-14356200D01*
X10580971Y-14384771D01*
X10580971Y-14541914D01*
X10723828Y-14541914D02*
X10723828Y-14341914D01*
X10723828Y-14370486D02*
X10738114Y-14356200D01*
X10766686Y-14341914D01*
X10809543Y-14341914D01*
X10838114Y-14356200D01*
X10852400Y-14384771D01*
X10852400Y-14541914D01*
X10852400Y-14384771D02*
X10866686Y-14356200D01*
X10895257Y-14341914D01*
X10938114Y-14341914D01*
X10966686Y-14356200D01*
X10980971Y-14384771D01*
X10980971Y-14541914D01*
X11566686Y-14227629D02*
X11309543Y-14613343D01*
X11952400Y-14241914D02*
X11980971Y-14241914D01*
X12009543Y-14256200D01*
X12023828Y-14270486D01*
X12038114Y-14299057D01*
X12052400Y-14356200D01*
X12052400Y-14427629D01*
X12038114Y-14484771D01*
X12023828Y-14513343D01*
X12009543Y-14527629D01*
X11980971Y-14541914D01*
X11952400Y-14541914D01*
X11923828Y-14527629D01*
X11909543Y-14513343D01*
X11895257Y-14484771D01*
X11880971Y-14427629D01*
X11880971Y-14356200D01*
X11895257Y-14299057D01*
X11909543Y-14270486D01*
X11923828Y-14256200D01*
X11952400Y-14241914D01*
X12180971Y-14513343D02*
X12195257Y-14527629D01*
X12180971Y-14541914D01*
X12166686Y-14527629D01*
X12180971Y-14513343D01*
X12180971Y-14541914D01*
X12380971Y-14241914D02*
X12409543Y-14241914D01*
X12438114Y-14256200D01*
X12452400Y-14270486D01*
X12466686Y-14299057D01*
X12480971Y-14356200D01*
X12480971Y-14427629D01*
X12466686Y-14484771D01*
X12452400Y-14513343D01*
X12438114Y-14527629D01*
X12409543Y-14541914D01*
X12380971Y-14541914D01*
X12352400Y-14527629D01*
X12338114Y-14513343D01*
X12323828Y-14484771D01*
X12309543Y-14427629D01*
X12309543Y-14356200D01*
X12323828Y-14299057D01*
X12338114Y-14270486D01*
X12352400Y-14256200D01*
X12380971Y-14241914D01*
X12580971Y-14241914D02*
X12766686Y-14241914D01*
X12666686Y-14356200D01*
X12709543Y-14356200D01*
X12738114Y-14370486D01*
X12752400Y-14384771D01*
X12766686Y-14413343D01*
X12766686Y-14484771D01*
X12752400Y-14513343D01*
X12738114Y-14527629D01*
X12709543Y-14541914D01*
X12623828Y-14541914D01*
X12595257Y-14527629D01*
X12580971Y-14513343D01*
X13052400Y-14541914D02*
X12880971Y-14541914D01*
X12966686Y-14541914D02*
X12966686Y-14241914D01*
X12938114Y-14284771D01*
X12909543Y-14313343D01*
X12880971Y-14327629D01*
X13166686Y-14241914D02*
X13166686Y-14299057D01*
X13280971Y-14241914D02*
X13280971Y-14299057D01*
X13723828Y-14656200D02*
X13709543Y-14641914D01*
X13680971Y-14599057D01*
X13666686Y-14570486D01*
X13652400Y-14527629D01*
X13638114Y-14456200D01*
X13638114Y-14399057D01*
X13652400Y-14327629D01*
X13666686Y-14284771D01*
X13680971Y-14256200D01*
X13709543Y-14213343D01*
X13723828Y-14199057D01*
X13852400Y-14541914D02*
X13909543Y-14541914D01*
X13938114Y-14527629D01*
X13952400Y-14513343D01*
X13980971Y-14470486D01*
X13995257Y-14413343D01*
X13995257Y-14299057D01*
X13980971Y-14270486D01*
X13966686Y-14256200D01*
X13938114Y-14241914D01*
X13880971Y-14241914D01*
X13852400Y-14256200D01*
X13838114Y-14270486D01*
X13823828Y-14299057D01*
X13823828Y-14370486D01*
X13838114Y-14399057D01*
X13852400Y-14413343D01*
X13880971Y-14427629D01*
X13938114Y-14427629D01*
X13966686Y-14413343D01*
X13980971Y-14399057D01*
X13995257Y-14370486D01*
X14252400Y-14241914D02*
X14195257Y-14241914D01*
X14166686Y-14256200D01*
X14152400Y-14270486D01*
X14123828Y-14313343D01*
X14109543Y-14370486D01*
X14109543Y-14484771D01*
X14123828Y-14513343D01*
X14138114Y-14527629D01*
X14166686Y-14541914D01*
X14223828Y-14541914D01*
X14252400Y-14527629D01*
X14266686Y-14513343D01*
X14280971Y-14484771D01*
X14280971Y-14413343D01*
X14266686Y-14384771D01*
X14252400Y-14370486D01*
X14223828Y-14356200D01*
X14166686Y-14356200D01*
X14138114Y-14370486D01*
X14123828Y-14384771D01*
X14109543Y-14413343D01*
X14638114Y-14541914D02*
X14638114Y-14241914D01*
X14766686Y-14541914D02*
X14766686Y-14384771D01*
X14752400Y-14356200D01*
X14723828Y-14341914D01*
X14680971Y-14341914D01*
X14652400Y-14356200D01*
X14638114Y-14370486D01*
X14952400Y-14541914D02*
X14923828Y-14527629D01*
X14909543Y-14513343D01*
X14895257Y-14484771D01*
X14895257Y-14399057D01*
X14909543Y-14370486D01*
X14923828Y-14356200D01*
X14952400Y-14341914D01*
X14995257Y-14341914D01*
X15023828Y-14356200D01*
X15038114Y-14370486D01*
X15052400Y-14399057D01*
X15052400Y-14484771D01*
X15038114Y-14513343D01*
X15023828Y-14527629D01*
X14995257Y-14541914D01*
X14952400Y-14541914D01*
X15223828Y-14541914D02*
X15195257Y-14527629D01*
X15180971Y-14499057D01*
X15180971Y-14241914D01*
X15452400Y-14527629D02*
X15423828Y-14541914D01*
X15366686Y-14541914D01*
X15338114Y-14527629D01*
X15323828Y-14499057D01*
X15323828Y-14384771D01*
X15338114Y-14356200D01*
X15366686Y-14341914D01*
X15423828Y-14341914D01*
X15452400Y-14356200D01*
X15466686Y-14384771D01*
X15466686Y-14413343D01*
X15323828Y-14441914D01*
X15580971Y-14527629D02*
X15609543Y-14541914D01*
X15666686Y-14541914D01*
X15695257Y-14527629D01*
X15709543Y-14499057D01*
X15709543Y-14484771D01*
X15695257Y-14456200D01*
X15666686Y-14441914D01*
X15623828Y-14441914D01*
X15595257Y-14427629D01*
X15580971Y-14399057D01*
X15580971Y-14384771D01*
X15595257Y-14356200D01*
X15623828Y-14341914D01*
X15666686Y-14341914D01*
X15695257Y-14356200D01*
X15809543Y-14656200D02*
X15823828Y-14641914D01*
X15852400Y-14599057D01*
X15866686Y-14570486D01*
X15880971Y-14527629D01*
X15895257Y-14456200D01*
X15895257Y-14399057D01*
X15880971Y-14327629D01*
X15866686Y-14284771D01*
X15852400Y-14256200D01*
X15823828Y-14213343D01*
X15809543Y-14199057D01*
X9024220Y-14834020D02*
X9024220Y-14770380D01*
X8960580Y-14770380D01*
X8960580Y-14834020D01*
X9024220Y-14834020D01*
X9380971Y-14637914D02*
X9409543Y-14637914D01*
X9438114Y-14652200D01*
X9452400Y-14666486D01*
X9466686Y-14695057D01*
X9480971Y-14752200D01*
X9480971Y-14823629D01*
X9466686Y-14880771D01*
X9452400Y-14909343D01*
X9438114Y-14923629D01*
X9409543Y-14937914D01*
X9380971Y-14937914D01*
X9352400Y-14923629D01*
X9338114Y-14909343D01*
X9323828Y-14880771D01*
X9309543Y-14823629D01*
X9309543Y-14752200D01*
X9323828Y-14695057D01*
X9338114Y-14666486D01*
X9352400Y-14652200D01*
X9380971Y-14637914D01*
X9609543Y-14909343D02*
X9623828Y-14923629D01*
X9609543Y-14937914D01*
X9595257Y-14923629D01*
X9609543Y-14909343D01*
X9609543Y-14937914D01*
X9766686Y-14937914D02*
X9823828Y-14937914D01*
X9852400Y-14923629D01*
X9866686Y-14909343D01*
X9895257Y-14866486D01*
X9909543Y-14809343D01*
X9909543Y-14695057D01*
X9895257Y-14666486D01*
X9880971Y-14652200D01*
X9852400Y-14637914D01*
X9795257Y-14637914D01*
X9766686Y-14652200D01*
X9752400Y-14666486D01*
X9738114Y-14695057D01*
X9738114Y-14766486D01*
X9752400Y-14795057D01*
X9766686Y-14809343D01*
X9795257Y-14823629D01*
X9852400Y-14823629D01*
X9880971Y-14809343D01*
X9895257Y-14795057D01*
X9909543Y-14766486D01*
X10095257Y-14637914D02*
X10123828Y-14637914D01*
X10152400Y-14652200D01*
X10166686Y-14666486D01*
X10180971Y-14695057D01*
X10195257Y-14752200D01*
X10195257Y-14823629D01*
X10180971Y-14880771D01*
X10166686Y-14909343D01*
X10152400Y-14923629D01*
X10123828Y-14937914D01*
X10095257Y-14937914D01*
X10066686Y-14923629D01*
X10052400Y-14909343D01*
X10038114Y-14880771D01*
X10023828Y-14823629D01*
X10023828Y-14752200D01*
X10038114Y-14695057D01*
X10052400Y-14666486D01*
X10066686Y-14652200D01*
X10095257Y-14637914D01*
X10323828Y-14937914D02*
X10323828Y-14737914D01*
X10323828Y-14766486D02*
X10338114Y-14752200D01*
X10366686Y-14737914D01*
X10409543Y-14737914D01*
X10438114Y-14752200D01*
X10452400Y-14780771D01*
X10452400Y-14937914D01*
X10452400Y-14780771D02*
X10466686Y-14752200D01*
X10495257Y-14737914D01*
X10538114Y-14737914D01*
X10566686Y-14752200D01*
X10580971Y-14780771D01*
X10580971Y-14937914D01*
X10723828Y-14937914D02*
X10723828Y-14737914D01*
X10723828Y-14766486D02*
X10738114Y-14752200D01*
X10766686Y-14737914D01*
X10809543Y-14737914D01*
X10838114Y-14752200D01*
X10852400Y-14780771D01*
X10852400Y-14937914D01*
X10852400Y-14780771D02*
X10866686Y-14752200D01*
X10895257Y-14737914D01*
X10938114Y-14737914D01*
X10966686Y-14752200D01*
X10980971Y-14780771D01*
X10980971Y-14937914D01*
X11566686Y-14623629D02*
X11309543Y-15009343D01*
X11952400Y-14637914D02*
X11980971Y-14637914D01*
X12009543Y-14652200D01*
X12023828Y-14666486D01*
X12038114Y-14695057D01*
X12052400Y-14752200D01*
X12052400Y-14823629D01*
X12038114Y-14880771D01*
X12023828Y-14909343D01*
X12009543Y-14923629D01*
X11980971Y-14937914D01*
X11952400Y-14937914D01*
X11923828Y-14923629D01*
X11909543Y-14909343D01*
X11895257Y-14880771D01*
X11880971Y-14823629D01*
X11880971Y-14752200D01*
X11895257Y-14695057D01*
X11909543Y-14666486D01*
X11923828Y-14652200D01*
X11952400Y-14637914D01*
X12180971Y-14909343D02*
X12195257Y-14923629D01*
X12180971Y-14937914D01*
X12166686Y-14923629D01*
X12180971Y-14909343D01*
X12180971Y-14937914D01*
X12380971Y-14637914D02*
X12409543Y-14637914D01*
X12438114Y-14652200D01*
X12452400Y-14666486D01*
X12466686Y-14695057D01*
X12480971Y-14752200D01*
X12480971Y-14823629D01*
X12466686Y-14880771D01*
X12452400Y-14909343D01*
X12438114Y-14923629D01*
X12409543Y-14937914D01*
X12380971Y-14937914D01*
X12352400Y-14923629D01*
X12338114Y-14909343D01*
X12323828Y-14880771D01*
X12309543Y-14823629D01*
X12309543Y-14752200D01*
X12323828Y-14695057D01*
X12338114Y-14666486D01*
X12352400Y-14652200D01*
X12380971Y-14637914D01*
X12580971Y-14637914D02*
X12766686Y-14637914D01*
X12666686Y-14752200D01*
X12709543Y-14752200D01*
X12738114Y-14766486D01*
X12752400Y-14780771D01*
X12766686Y-14809343D01*
X12766686Y-14880771D01*
X12752400Y-14909343D01*
X12738114Y-14923629D01*
X12709543Y-14937914D01*
X12623828Y-14937914D01*
X12595257Y-14923629D01*
X12580971Y-14909343D01*
X13038114Y-14637914D02*
X12895257Y-14637914D01*
X12880971Y-14780771D01*
X12895257Y-14766486D01*
X12923828Y-14752200D01*
X12995257Y-14752200D01*
X13023828Y-14766486D01*
X13038114Y-14780771D01*
X13052400Y-14809343D01*
X13052400Y-14880771D01*
X13038114Y-14909343D01*
X13023828Y-14923629D01*
X12995257Y-14937914D01*
X12923828Y-14937914D01*
X12895257Y-14923629D01*
X12880971Y-14909343D01*
X13166686Y-14637914D02*
X13166686Y-14695057D01*
X13280971Y-14637914D02*
X13280971Y-14695057D01*
X13723828Y-15052200D02*
X13709543Y-15037914D01*
X13680971Y-14995057D01*
X13666686Y-14966486D01*
X13652400Y-14923629D01*
X13638114Y-14852200D01*
X13638114Y-14795057D01*
X13652400Y-14723629D01*
X13666686Y-14680771D01*
X13680971Y-14652200D01*
X13709543Y-14609343D01*
X13723828Y-14595057D01*
X13823828Y-14666486D02*
X13838114Y-14652200D01*
X13866686Y-14637914D01*
X13938114Y-14637914D01*
X13966686Y-14652200D01*
X13980971Y-14666486D01*
X13995257Y-14695057D01*
X13995257Y-14723629D01*
X13980971Y-14766486D01*
X13809543Y-14937914D01*
X13995257Y-14937914D01*
X14352400Y-14937914D02*
X14352400Y-14637914D01*
X14480971Y-14937914D02*
X14480971Y-14780771D01*
X14466686Y-14752200D01*
X14438114Y-14737914D01*
X14395257Y-14737914D01*
X14366686Y-14752200D01*
X14352400Y-14766486D01*
X14666686Y-14937914D02*
X14638114Y-14923629D01*
X14623828Y-14909343D01*
X14609543Y-14880771D01*
X14609543Y-14795057D01*
X14623828Y-14766486D01*
X14638114Y-14752200D01*
X14666686Y-14737914D01*
X14709543Y-14737914D01*
X14738114Y-14752200D01*
X14752400Y-14766486D01*
X14766686Y-14795057D01*
X14766686Y-14880771D01*
X14752400Y-14909343D01*
X14738114Y-14923629D01*
X14709543Y-14937914D01*
X14666686Y-14937914D01*
X14938114Y-14937914D02*
X14909543Y-14923629D01*
X14895257Y-14895057D01*
X14895257Y-14637914D01*
X15166686Y-14923629D02*
X15138114Y-14937914D01*
X15080971Y-14937914D01*
X15052400Y-14923629D01*
X15038114Y-14895057D01*
X15038114Y-14780771D01*
X15052400Y-14752200D01*
X15080971Y-14737914D01*
X15138114Y-14737914D01*
X15166686Y-14752200D01*
X15180971Y-14780771D01*
X15180971Y-14809343D01*
X15038114Y-14837914D01*
X15295257Y-14923629D02*
X15323828Y-14937914D01*
X15380971Y-14937914D01*
X15409543Y-14923629D01*
X15423828Y-14895057D01*
X15423828Y-14880771D01*
X15409543Y-14852200D01*
X15380971Y-14837914D01*
X15338114Y-14837914D01*
X15309543Y-14823629D01*
X15295257Y-14795057D01*
X15295257Y-14780771D01*
X15309543Y-14752200D01*
X15338114Y-14737914D01*
X15380971Y-14737914D01*
X15409543Y-14752200D01*
X15523828Y-15052200D02*
X15538114Y-15037914D01*
X15566686Y-14995057D01*
X15580971Y-14966486D01*
X15595257Y-14923629D01*
X15609543Y-14852200D01*
X15609543Y-14795057D01*
X15595257Y-14723629D01*
X15580971Y-14680771D01*
X15566686Y-14652200D01*
X15538114Y-14609343D01*
X15523828Y-14595057D01*
X8987400Y-15248200D02*
X9037400Y-15198200D01*
X8987400Y-15148200D01*
X8937400Y-15198200D01*
X8987400Y-15248200D01*
X9480971Y-15333914D02*
X9309543Y-15333914D01*
X9395257Y-15333914D02*
X9395257Y-15033914D01*
X9366686Y-15076771D01*
X9338114Y-15105343D01*
X9309543Y-15119629D01*
X9609543Y-15305343D02*
X9623828Y-15319629D01*
X9609543Y-15333914D01*
X9595257Y-15319629D01*
X9609543Y-15305343D01*
X9609543Y-15333914D01*
X9809543Y-15033914D02*
X9838114Y-15033914D01*
X9866686Y-15048200D01*
X9880971Y-15062486D01*
X9895257Y-15091057D01*
X9909543Y-15148200D01*
X9909543Y-15219629D01*
X9895257Y-15276771D01*
X9880971Y-15305343D01*
X9866686Y-15319629D01*
X9838114Y-15333914D01*
X9809543Y-15333914D01*
X9780971Y-15319629D01*
X9766686Y-15305343D01*
X9752400Y-15276771D01*
X9738114Y-15219629D01*
X9738114Y-15148200D01*
X9752400Y-15091057D01*
X9766686Y-15062486D01*
X9780971Y-15048200D01*
X9809543Y-15033914D01*
X10095257Y-15033914D02*
X10123828Y-15033914D01*
X10152400Y-15048200D01*
X10166686Y-15062486D01*
X10180971Y-15091057D01*
X10195257Y-15148200D01*
X10195257Y-15219629D01*
X10180971Y-15276771D01*
X10166686Y-15305343D01*
X10152400Y-15319629D01*
X10123828Y-15333914D01*
X10095257Y-15333914D01*
X10066686Y-15319629D01*
X10052400Y-15305343D01*
X10038114Y-15276771D01*
X10023828Y-15219629D01*
X10023828Y-15148200D01*
X10038114Y-15091057D01*
X10052400Y-15062486D01*
X10066686Y-15048200D01*
X10095257Y-15033914D01*
X10323828Y-15333914D02*
X10323828Y-15133914D01*
X10323828Y-15162486D02*
X10338114Y-15148200D01*
X10366686Y-15133914D01*
X10409543Y-15133914D01*
X10438114Y-15148200D01*
X10452400Y-15176771D01*
X10452400Y-15333914D01*
X10452400Y-15176771D02*
X10466686Y-15148200D01*
X10495257Y-15133914D01*
X10538114Y-15133914D01*
X10566686Y-15148200D01*
X10580971Y-15176771D01*
X10580971Y-15333914D01*
X10723828Y-15333914D02*
X10723828Y-15133914D01*
X10723828Y-15162486D02*
X10738114Y-15148200D01*
X10766686Y-15133914D01*
X10809543Y-15133914D01*
X10838114Y-15148200D01*
X10852400Y-15176771D01*
X10852400Y-15333914D01*
X10852400Y-15176771D02*
X10866686Y-15148200D01*
X10895257Y-15133914D01*
X10938114Y-15133914D01*
X10966686Y-15148200D01*
X10980971Y-15176771D01*
X10980971Y-15333914D01*
X11566686Y-15019629D02*
X11309543Y-15405343D01*
X11952400Y-15033914D02*
X11980971Y-15033914D01*
X12009543Y-15048200D01*
X12023828Y-15062486D01*
X12038114Y-15091057D01*
X12052400Y-15148200D01*
X12052400Y-15219629D01*
X12038114Y-15276771D01*
X12023828Y-15305343D01*
X12009543Y-15319629D01*
X11980971Y-15333914D01*
X11952400Y-15333914D01*
X11923828Y-15319629D01*
X11909543Y-15305343D01*
X11895257Y-15276771D01*
X11880971Y-15219629D01*
X11880971Y-15148200D01*
X11895257Y-15091057D01*
X11909543Y-15062486D01*
X11923828Y-15048200D01*
X11952400Y-15033914D01*
X12180971Y-15305343D02*
X12195257Y-15319629D01*
X12180971Y-15333914D01*
X12166686Y-15319629D01*
X12180971Y-15305343D01*
X12180971Y-15333914D01*
X12380971Y-15033914D02*
X12409543Y-15033914D01*
X12438114Y-15048200D01*
X12452400Y-15062486D01*
X12466686Y-15091057D01*
X12480971Y-15148200D01*
X12480971Y-15219629D01*
X12466686Y-15276771D01*
X12452400Y-15305343D01*
X12438114Y-15319629D01*
X12409543Y-15333914D01*
X12380971Y-15333914D01*
X12352400Y-15319629D01*
X12338114Y-15305343D01*
X12323828Y-15276771D01*
X12309543Y-15219629D01*
X12309543Y-15148200D01*
X12323828Y-15091057D01*
X12338114Y-15062486D01*
X12352400Y-15048200D01*
X12380971Y-15033914D01*
X12580971Y-15033914D02*
X12766686Y-15033914D01*
X12666686Y-15148200D01*
X12709543Y-15148200D01*
X12738114Y-15162486D01*
X12752400Y-15176771D01*
X12766686Y-15205343D01*
X12766686Y-15276771D01*
X12752400Y-15305343D01*
X12738114Y-15319629D01*
X12709543Y-15333914D01*
X12623828Y-15333914D01*
X12595257Y-15319629D01*
X12580971Y-15305343D01*
X12909543Y-15333914D02*
X12966686Y-15333914D01*
X12995257Y-15319629D01*
X13009543Y-15305343D01*
X13038114Y-15262486D01*
X13052400Y-15205343D01*
X13052400Y-15091057D01*
X13038114Y-15062486D01*
X13023828Y-15048200D01*
X12995257Y-15033914D01*
X12938114Y-15033914D01*
X12909543Y-15048200D01*
X12895257Y-15062486D01*
X12880971Y-15091057D01*
X12880971Y-15162486D01*
X12895257Y-15191057D01*
X12909543Y-15205343D01*
X12938114Y-15219629D01*
X12995257Y-15219629D01*
X13023828Y-15205343D01*
X13038114Y-15191057D01*
X13052400Y-15162486D01*
X13166686Y-15033914D02*
X13166686Y-15091057D01*
X13280971Y-15033914D02*
X13280971Y-15091057D01*
X13723828Y-15448200D02*
X13709543Y-15433914D01*
X13680971Y-15391057D01*
X13666686Y-15362486D01*
X13652400Y-15319629D01*
X13638114Y-15248200D01*
X13638114Y-15191057D01*
X13652400Y-15119629D01*
X13666686Y-15076771D01*
X13680971Y-15048200D01*
X13709543Y-15005343D01*
X13723828Y-14991057D01*
X13995257Y-15333914D02*
X13823828Y-15333914D01*
X13909543Y-15333914D02*
X13909543Y-15033914D01*
X13880971Y-15076771D01*
X13852400Y-15105343D01*
X13823828Y-15119629D01*
X14109543Y-15062486D02*
X14123828Y-15048200D01*
X14152400Y-15033914D01*
X14223828Y-15033914D01*
X14252400Y-15048200D01*
X14266686Y-15062486D01*
X14280971Y-15091057D01*
X14280971Y-15119629D01*
X14266686Y-15162486D01*
X14095257Y-15333914D01*
X14280971Y-15333914D01*
X14638114Y-15333914D02*
X14638114Y-15033914D01*
X14766686Y-15333914D02*
X14766686Y-15176771D01*
X14752400Y-15148200D01*
X14723828Y-15133914D01*
X14680971Y-15133914D01*
X14652400Y-15148200D01*
X14638114Y-15162486D01*
X14952400Y-15333914D02*
X14923828Y-15319629D01*
X14909543Y-15305343D01*
X14895257Y-15276771D01*
X14895257Y-15191057D01*
X14909543Y-15162486D01*
X14923828Y-15148200D01*
X14952400Y-15133914D01*
X14995257Y-15133914D01*
X15023828Y-15148200D01*
X15038114Y-15162486D01*
X15052400Y-15191057D01*
X15052400Y-15276771D01*
X15038114Y-15305343D01*
X15023828Y-15319629D01*
X14995257Y-15333914D01*
X14952400Y-15333914D01*
X15223828Y-15333914D02*
X15195257Y-15319629D01*
X15180971Y-15291057D01*
X15180971Y-15033914D01*
X15452400Y-15319629D02*
X15423828Y-15333914D01*
X15366686Y-15333914D01*
X15338114Y-15319629D01*
X15323828Y-15291057D01*
X15323828Y-15176771D01*
X15338114Y-15148200D01*
X15366686Y-15133914D01*
X15423828Y-15133914D01*
X15452400Y-15148200D01*
X15466686Y-15176771D01*
X15466686Y-15205343D01*
X15323828Y-15233914D01*
X15580971Y-15319629D02*
X15609543Y-15333914D01*
X15666686Y-15333914D01*
X15695257Y-15319629D01*
X15709543Y-15291057D01*
X15709543Y-15276771D01*
X15695257Y-15248200D01*
X15666686Y-15233914D01*
X15623828Y-15233914D01*
X15595257Y-15219629D01*
X15580971Y-15191057D01*
X15580971Y-15176771D01*
X15595257Y-15148200D01*
X15623828Y-15133914D01*
X15666686Y-15133914D01*
X15695257Y-15148200D01*
X15809543Y-15448200D02*
X15823828Y-15433914D01*
X15852400Y-15391057D01*
X15866686Y-15362486D01*
X15880971Y-15319629D01*
X15895257Y-15248200D01*
X15895257Y-15191057D01*
X15880971Y-15119629D01*
X15866686Y-15076771D01*
X15852400Y-15048200D01*
X15823828Y-15005343D01*
X15809543Y-14991057D01*
X8917400Y-15534200D02*
X9037400Y-15654200D01*
X9037400Y-15534200D02*
X8917400Y-15654200D01*
X9037400Y-15594200D02*
G75*
G03*
X9037400Y-15594200I-60000J0D01*
G01*
X9480971Y-15729914D02*
X9309543Y-15729914D01*
X9395257Y-15729914D02*
X9395257Y-15429914D01*
X9366686Y-15472771D01*
X9338114Y-15501343D01*
X9309543Y-15515629D01*
X9609543Y-15701343D02*
X9623828Y-15715629D01*
X9609543Y-15729914D01*
X9595257Y-15715629D01*
X9609543Y-15701343D01*
X9609543Y-15729914D01*
X9738114Y-15458486D02*
X9752400Y-15444200D01*
X9780971Y-15429914D01*
X9852400Y-15429914D01*
X9880971Y-15444200D01*
X9895257Y-15458486D01*
X9909543Y-15487057D01*
X9909543Y-15515629D01*
X9895257Y-15558486D01*
X9723828Y-15729914D01*
X9909543Y-15729914D01*
X10095257Y-15429914D02*
X10123828Y-15429914D01*
X10152400Y-15444200D01*
X10166686Y-15458486D01*
X10180971Y-15487057D01*
X10195257Y-15544200D01*
X10195257Y-15615629D01*
X10180971Y-15672771D01*
X10166686Y-15701343D01*
X10152400Y-15715629D01*
X10123828Y-15729914D01*
X10095257Y-15729914D01*
X10066686Y-15715629D01*
X10052400Y-15701343D01*
X10038114Y-15672771D01*
X10023828Y-15615629D01*
X10023828Y-15544200D01*
X10038114Y-15487057D01*
X10052400Y-15458486D01*
X10066686Y-15444200D01*
X10095257Y-15429914D01*
X10323828Y-15729914D02*
X10323828Y-15529914D01*
X10323828Y-15558486D02*
X10338114Y-15544200D01*
X10366686Y-15529914D01*
X10409543Y-15529914D01*
X10438114Y-15544200D01*
X10452400Y-15572771D01*
X10452400Y-15729914D01*
X10452400Y-15572771D02*
X10466686Y-15544200D01*
X10495257Y-15529914D01*
X10538114Y-15529914D01*
X10566686Y-15544200D01*
X10580971Y-15572771D01*
X10580971Y-15729914D01*
X10723828Y-15729914D02*
X10723828Y-15529914D01*
X10723828Y-15558486D02*
X10738114Y-15544200D01*
X10766686Y-15529914D01*
X10809543Y-15529914D01*
X10838114Y-15544200D01*
X10852400Y-15572771D01*
X10852400Y-15729914D01*
X10852400Y-15572771D02*
X10866686Y-15544200D01*
X10895257Y-15529914D01*
X10938114Y-15529914D01*
X10966686Y-15544200D01*
X10980971Y-15572771D01*
X10980971Y-15729914D01*
X11566686Y-15415629D02*
X11309543Y-15801343D01*
X11952400Y-15429914D02*
X11980971Y-15429914D01*
X12009543Y-15444200D01*
X12023828Y-15458486D01*
X12038114Y-15487057D01*
X12052400Y-15544200D01*
X12052400Y-15615629D01*
X12038114Y-15672771D01*
X12023828Y-15701343D01*
X12009543Y-15715629D01*
X11980971Y-15729914D01*
X11952400Y-15729914D01*
X11923828Y-15715629D01*
X11909543Y-15701343D01*
X11895257Y-15672771D01*
X11880971Y-15615629D01*
X11880971Y-15544200D01*
X11895257Y-15487057D01*
X11909543Y-15458486D01*
X11923828Y-15444200D01*
X11952400Y-15429914D01*
X12180971Y-15701343D02*
X12195257Y-15715629D01*
X12180971Y-15729914D01*
X12166686Y-15715629D01*
X12180971Y-15701343D01*
X12180971Y-15729914D01*
X12380971Y-15429914D02*
X12409543Y-15429914D01*
X12438114Y-15444200D01*
X12452400Y-15458486D01*
X12466686Y-15487057D01*
X12480971Y-15544200D01*
X12480971Y-15615629D01*
X12466686Y-15672771D01*
X12452400Y-15701343D01*
X12438114Y-15715629D01*
X12409543Y-15729914D01*
X12380971Y-15729914D01*
X12352400Y-15715629D01*
X12338114Y-15701343D01*
X12323828Y-15672771D01*
X12309543Y-15615629D01*
X12309543Y-15544200D01*
X12323828Y-15487057D01*
X12338114Y-15458486D01*
X12352400Y-15444200D01*
X12380971Y-15429914D01*
X12738114Y-15529914D02*
X12738114Y-15729914D01*
X12666686Y-15415629D02*
X12595257Y-15629914D01*
X12780971Y-15629914D01*
X12866686Y-15429914D02*
X13066686Y-15429914D01*
X12938114Y-15729914D01*
X13166686Y-15429914D02*
X13166686Y-15487057D01*
X13280971Y-15429914D02*
X13280971Y-15487057D01*
X13723828Y-15844200D02*
X13709543Y-15829914D01*
X13680971Y-15787057D01*
X13666686Y-15758486D01*
X13652400Y-15715629D01*
X13638114Y-15644200D01*
X13638114Y-15587057D01*
X13652400Y-15515629D01*
X13666686Y-15472771D01*
X13680971Y-15444200D01*
X13709543Y-15401343D01*
X13723828Y-15387057D01*
X13823828Y-15458486D02*
X13838114Y-15444200D01*
X13866686Y-15429914D01*
X13938114Y-15429914D01*
X13966686Y-15444200D01*
X13980971Y-15458486D01*
X13995257Y-15487057D01*
X13995257Y-15515629D01*
X13980971Y-15558486D01*
X13809543Y-15729914D01*
X13995257Y-15729914D01*
X14352400Y-15729914D02*
X14352400Y-15429914D01*
X14480971Y-15729914D02*
X14480971Y-15572771D01*
X14466686Y-15544200D01*
X14438114Y-15529914D01*
X14395257Y-15529914D01*
X14366686Y-15544200D01*
X14352400Y-15558486D01*
X14666686Y-15729914D02*
X14638114Y-15715629D01*
X14623828Y-15701343D01*
X14609543Y-15672771D01*
X14609543Y-15587057D01*
X14623828Y-15558486D01*
X14638114Y-15544200D01*
X14666686Y-15529914D01*
X14709543Y-15529914D01*
X14738114Y-15544200D01*
X14752400Y-15558486D01*
X14766686Y-15587057D01*
X14766686Y-15672771D01*
X14752400Y-15701343D01*
X14738114Y-15715629D01*
X14709543Y-15729914D01*
X14666686Y-15729914D01*
X14938114Y-15729914D02*
X14909543Y-15715629D01*
X14895257Y-15687057D01*
X14895257Y-15429914D01*
X15166686Y-15715629D02*
X15138114Y-15729914D01*
X15080971Y-15729914D01*
X15052400Y-15715629D01*
X15038114Y-15687057D01*
X15038114Y-15572771D01*
X15052400Y-15544200D01*
X15080971Y-15529914D01*
X15138114Y-15529914D01*
X15166686Y-15544200D01*
X15180971Y-15572771D01*
X15180971Y-15601343D01*
X15038114Y-15629914D01*
X15295257Y-15715629D02*
X15323828Y-15729914D01*
X15380971Y-15729914D01*
X15409543Y-15715629D01*
X15423828Y-15687057D01*
X15423828Y-15672771D01*
X15409543Y-15644200D01*
X15380971Y-15629914D01*
X15338114Y-15629914D01*
X15309543Y-15615629D01*
X15295257Y-15587057D01*
X15295257Y-15572771D01*
X15309543Y-15544200D01*
X15338114Y-15529914D01*
X15380971Y-15529914D01*
X15409543Y-15544200D01*
X15523828Y-15844200D02*
X15538114Y-15829914D01*
X15566686Y-15787057D01*
X15580971Y-15758486D01*
X15595257Y-15715629D01*
X15609543Y-15644200D01*
X15609543Y-15587057D01*
X15595257Y-15515629D01*
X15580971Y-15472771D01*
X15566686Y-15444200D01*
X15538114Y-15401343D01*
X15523828Y-15387057D01*
M02*
