G04 #@! TF.GenerationSoftware,KiCad,Pcbnew,5.1.8-5.1.8*
G04 #@! TF.CreationDate,2021-12-06T17:42:23+01:00*
G04 #@! TF.ProjectId,Dcf77_Elrad,44636637-375f-4456-9c72-61642e6b6963,1.0*
G04 #@! TF.SameCoordinates,Original*
G04 #@! TF.FileFunction,Copper,L2,Bot*
G04 #@! TF.FilePolarity,Positive*
%FSLAX46Y46*%
G04 Gerber Fmt 4.6, Leading zero omitted, Abs format (unit mm)*
G04 Created by KiCad (PCBNEW 5.1.8-5.1.8) date 2021-12-06 17:42:23*
%MOMM*%
%LPD*%
G01*
G04 APERTURE LIST*
G04 #@! TA.AperFunction,ComponentPad*
%ADD10O,1.700000X1.700000*%
G04 #@! TD*
G04 #@! TA.AperFunction,ComponentPad*
%ADD11R,1.700000X1.700000*%
G04 #@! TD*
G04 #@! TA.AperFunction,ComponentPad*
%ADD12O,1.600000X1.600000*%
G04 #@! TD*
G04 #@! TA.AperFunction,ComponentPad*
%ADD13C,1.600000*%
G04 #@! TD*
G04 #@! TA.AperFunction,ComponentPad*
%ADD14R,1.500000X1.050000*%
G04 #@! TD*
G04 #@! TA.AperFunction,ComponentPad*
%ADD15O,1.500000X1.050000*%
G04 #@! TD*
G04 #@! TA.AperFunction,ComponentPad*
%ADD16O,1.600000X2.400000*%
G04 #@! TD*
G04 #@! TA.AperFunction,ComponentPad*
%ADD17R,1.600000X2.400000*%
G04 #@! TD*
G04 #@! TA.AperFunction,ComponentPad*
%ADD18C,1.400000*%
G04 #@! TD*
G04 #@! TA.AperFunction,ComponentPad*
%ADD19R,1.600000X1.600000*%
G04 #@! TD*
G04 #@! TA.AperFunction,ComponentPad*
%ADD20C,2.400000*%
G04 #@! TD*
G04 #@! TA.AperFunction,ComponentPad*
%ADD21R,2.400000X2.400000*%
G04 #@! TD*
G04 #@! TA.AperFunction,ComponentPad*
%ADD22C,2.000000*%
G04 #@! TD*
G04 #@! TA.AperFunction,ComponentPad*
%ADD23R,2.000000X2.000000*%
G04 #@! TD*
G04 #@! TA.AperFunction,ComponentPad*
%ADD24C,1.800000*%
G04 #@! TD*
G04 #@! TA.AperFunction,ComponentPad*
%ADD25R,1.800000X1.800000*%
G04 #@! TD*
G04 #@! TA.AperFunction,ComponentPad*
%ADD26C,1.500000*%
G04 #@! TD*
G04 #@! TA.AperFunction,Conductor*
%ADD27C,1.000000*%
G04 #@! TD*
G04 #@! TA.AperFunction,Conductor*
%ADD28C,0.500000*%
G04 #@! TD*
G04 #@! TA.AperFunction,Conductor*
%ADD29C,0.250000*%
G04 #@! TD*
G04 APERTURE END LIST*
D10*
X139964000Y-82992000D03*
D11*
X137424000Y-82992000D03*
D10*
X121464000Y-82992000D03*
D11*
X118924000Y-82992000D03*
D10*
X130384000Y-82992000D03*
D11*
X132924000Y-82992000D03*
D10*
X105924000Y-123532000D03*
D11*
X105924000Y-120992000D03*
D10*
X183464000Y-109992000D03*
D11*
X180924000Y-109992000D03*
D12*
X101924000Y-113832000D03*
D13*
X101924000Y-123992000D03*
D12*
X93924000Y-97652000D03*
D13*
X93924000Y-87492000D03*
D12*
X114924000Y-92992000D03*
D13*
X114924000Y-103152000D03*
D12*
X105924000Y-117652000D03*
D13*
X105924000Y-107492000D03*
D12*
X114924000Y-117152000D03*
D13*
X114924000Y-106992000D03*
D14*
X120424000Y-89992000D03*
D15*
X120424000Y-87452000D03*
X120424000Y-88722000D03*
D16*
X103424000Y-95872000D03*
X111044000Y-103492000D03*
X105964000Y-95872000D03*
X108504000Y-103492000D03*
X108504000Y-95872000D03*
X105964000Y-103492000D03*
X111044000Y-95872000D03*
D17*
X103424000Y-103492000D03*
D18*
X105924000Y-91992000D03*
X103424000Y-91992000D03*
X114924000Y-89992000D03*
X114924000Y-87492000D03*
X124924000Y-87492000D03*
X124924000Y-89992000D03*
D13*
X96924000Y-113992000D03*
D19*
X94424000Y-113992000D03*
D18*
X111924000Y-121992000D03*
X109424000Y-121992000D03*
X97924000Y-97492000D03*
X97924000Y-94992000D03*
X103424000Y-85492000D03*
X105924000Y-85492000D03*
X109924000Y-109492000D03*
X109924000Y-111992000D03*
X119424000Y-112492000D03*
X119424000Y-109992000D03*
X132924000Y-88992000D03*
X132924000Y-91492000D03*
X129424000Y-88992000D03*
X129424000Y-91492000D03*
D12*
X123924000Y-112332000D03*
D13*
X123924000Y-122492000D03*
X151924000Y-108492000D03*
D19*
X149424000Y-108492000D03*
D20*
X142924000Y-121492000D03*
D21*
X142924000Y-113992000D03*
D13*
X129924000Y-117492000D03*
D19*
X129924000Y-114992000D03*
D13*
X134924000Y-109992000D03*
D19*
X134924000Y-107492000D03*
D13*
X129924000Y-108992000D03*
D19*
X127424000Y-108992000D03*
D12*
X172674000Y-123652000D03*
D13*
X172674000Y-113492000D03*
D12*
X161424000Y-123652000D03*
D13*
X161424000Y-113492000D03*
D12*
X157424000Y-123652000D03*
D13*
X157424000Y-113492000D03*
D22*
X184924000Y-118492000D03*
D23*
X179924000Y-118492000D03*
D13*
X151924000Y-98492000D03*
D19*
X151924000Y-100992000D03*
D13*
X152424000Y-93992000D03*
D19*
X152424000Y-91492000D03*
D13*
X120424000Y-95492000D03*
D19*
X120424000Y-97992000D03*
D12*
X158924000Y-103152000D03*
D13*
X158924000Y-92992000D03*
D12*
X164924000Y-123652000D03*
D13*
X164924000Y-113492000D03*
D24*
X161384000Y-108492000D03*
D25*
X163924000Y-108492000D03*
D18*
X168924000Y-113492000D03*
X168924000Y-115992000D03*
D16*
X163924000Y-95872000D03*
X171544000Y-103492000D03*
X166464000Y-95872000D03*
X169004000Y-103492000D03*
X169004000Y-95872000D03*
X166464000Y-103492000D03*
X171544000Y-95872000D03*
D17*
X163924000Y-103492000D03*
D18*
X166424000Y-91992000D03*
X163924000Y-91992000D03*
D12*
X157264000Y-86992000D03*
D13*
X167424000Y-86992000D03*
D12*
X136764000Y-91492000D03*
D13*
X146924000Y-91492000D03*
D16*
X126924000Y-95872000D03*
X147244000Y-103492000D03*
X129464000Y-95872000D03*
X144704000Y-103492000D03*
X132004000Y-95872000D03*
X142164000Y-103492000D03*
X134544000Y-95872000D03*
X139624000Y-103492000D03*
X137084000Y-95872000D03*
X137084000Y-103492000D03*
X139624000Y-95872000D03*
X134544000Y-103492000D03*
X142164000Y-95872000D03*
X132004000Y-103492000D03*
X144704000Y-95872000D03*
X129464000Y-103492000D03*
X147244000Y-95872000D03*
D17*
X126924000Y-103492000D03*
D16*
X179924000Y-95872000D03*
X197704000Y-103492000D03*
X182464000Y-95872000D03*
X195164000Y-103492000D03*
X185004000Y-95872000D03*
X192624000Y-103492000D03*
X187544000Y-95872000D03*
X190084000Y-103492000D03*
X190084000Y-95872000D03*
X187544000Y-103492000D03*
X192624000Y-95872000D03*
X185004000Y-103492000D03*
X195164000Y-95872000D03*
X182464000Y-103492000D03*
X197704000Y-95872000D03*
D17*
X179924000Y-103492000D03*
D18*
X171924000Y-86992000D03*
X174424000Y-86992000D03*
D12*
X188264000Y-85492000D03*
D13*
X198424000Y-85492000D03*
D18*
X179924000Y-91992000D03*
X182424000Y-91992000D03*
D26*
X190424000Y-90492000D03*
X195304000Y-90492000D03*
D27*
X121714000Y-82992000D02*
X125214000Y-79492000D01*
X163924000Y-80992000D02*
X163924000Y-91992000D01*
X162424000Y-79492000D02*
X163924000Y-80992000D01*
X179924000Y-95872000D02*
X179924000Y-91992000D01*
X179924000Y-91992000D02*
X179924000Y-80742000D01*
X178674000Y-79492000D02*
X162424000Y-79492000D01*
X179924000Y-80742000D02*
X178674000Y-79492000D01*
X163924000Y-91992000D02*
X163924000Y-95872000D01*
X121464000Y-86412000D02*
X121464000Y-82992000D01*
X120424000Y-87452000D02*
X121464000Y-86412000D01*
D28*
X158924000Y-92992000D02*
X158924000Y-92742000D01*
X159674000Y-91992000D02*
X163924000Y-91992000D01*
X158924000Y-92742000D02*
X159674000Y-91992000D01*
D27*
X103424000Y-95872000D02*
X103424000Y-91992000D01*
X124884000Y-87452000D02*
X124924000Y-87492000D01*
X120424000Y-87452000D02*
X124884000Y-87452000D01*
X137424000Y-79992000D02*
X136924000Y-79492000D01*
X137424000Y-82992000D02*
X137424000Y-79992000D01*
X136924000Y-79492000D02*
X162424000Y-79492000D01*
X125214000Y-79492000D02*
X136924000Y-79492000D01*
D28*
X103574001Y-91841999D02*
X103424000Y-91992000D01*
D29*
X105424000Y-82992000D02*
X104898999Y-83517001D01*
X105424000Y-79492000D02*
X105424000Y-82992000D01*
X105924000Y-78992000D02*
X105424000Y-79492000D01*
X104898999Y-83517001D02*
X104898999Y-89017001D01*
X124924000Y-78992000D02*
X105924000Y-78992000D01*
X125214000Y-79282000D02*
X124924000Y-78992000D01*
X103424000Y-90492000D02*
X103424000Y-91992000D01*
X104898999Y-89017001D02*
X103424000Y-90492000D01*
X125214000Y-79492000D02*
X125214000Y-79282000D01*
D28*
X183464000Y-117032000D02*
X184924000Y-118492000D01*
X183464000Y-109992000D02*
X183464000Y-117032000D01*
D27*
X134544000Y-99372000D02*
X134544000Y-95872000D01*
X133924000Y-99992000D02*
X134544000Y-99372000D01*
X114924000Y-89992000D02*
X120424000Y-89992000D01*
X120424000Y-89992000D02*
X123424000Y-92992000D01*
X123424000Y-92992000D02*
X123424000Y-99992000D01*
X123424000Y-99992000D02*
X133924000Y-99992000D01*
X120424000Y-99992000D02*
X123424000Y-99992000D01*
X120424000Y-97992000D02*
X120424000Y-99992000D01*
X116424000Y-106992000D02*
X120424000Y-102992000D01*
X120424000Y-102992000D02*
X120424000Y-97992000D01*
X114924000Y-106992000D02*
X116424000Y-106992000D01*
D28*
X114924000Y-103152000D02*
X114924000Y-106992000D01*
X126924000Y-103492000D02*
X123924000Y-103492000D01*
X119424000Y-107992000D02*
X119424000Y-109992000D01*
X123924000Y-103492000D02*
X119424000Y-107992000D01*
X112924000Y-119492000D02*
X110924000Y-117492000D01*
X116924000Y-119492000D02*
X112924000Y-119492000D01*
X117424000Y-118992000D02*
X116924000Y-119492000D01*
X117924000Y-109992000D02*
X117424000Y-110492000D01*
X117424000Y-110492000D02*
X117424000Y-118992000D01*
X119424000Y-109992000D02*
X117924000Y-109992000D01*
X109924000Y-116492000D02*
X110924000Y-117492000D01*
X109924000Y-111992000D02*
X109924000Y-116492000D01*
X107084000Y-116492000D02*
X105924000Y-117652000D01*
X109924000Y-116492000D02*
X107084000Y-116492000D01*
X109924000Y-109492000D02*
X113924000Y-109492000D01*
X114924000Y-110492000D02*
X114924000Y-117152000D01*
X113924000Y-109492000D02*
X114924000Y-110492000D01*
X109924000Y-109492000D02*
X109924000Y-107492000D01*
X108504000Y-106072000D02*
X108504000Y-103492000D01*
X109924000Y-107492000D02*
X108504000Y-106072000D01*
X111924000Y-121992000D02*
X113424000Y-121992000D01*
X113924000Y-122492000D02*
X123924000Y-122492000D01*
X113424000Y-121992000D02*
X113924000Y-122492000D01*
X109424000Y-121992000D02*
X109424000Y-119992000D01*
X109424000Y-119992000D02*
X108424000Y-118992000D01*
X108424000Y-118992000D02*
X99924000Y-118992000D01*
X99924000Y-118992000D02*
X98924000Y-117992000D01*
X94424000Y-113992000D02*
X94424000Y-114992000D01*
X97424000Y-117992000D02*
X98924000Y-117992000D01*
X94424000Y-114992000D02*
X97424000Y-117992000D01*
X93924000Y-113492000D02*
X94424000Y-113992000D01*
X93924000Y-97652000D02*
X93924000Y-113492000D01*
X108504000Y-95872000D02*
X105964000Y-95872000D01*
X105964000Y-95872000D02*
X105964000Y-97452000D01*
X105964000Y-97452000D02*
X105424000Y-97992000D01*
X105424000Y-97992000D02*
X101924000Y-97992000D01*
X100074001Y-96142001D02*
X94773999Y-96142001D01*
X101924000Y-97992000D02*
X100074001Y-96142001D01*
X93924000Y-96992000D02*
X93924000Y-97652000D01*
X94773999Y-96142001D02*
X93924000Y-96992000D01*
X161384000Y-108492000D02*
X159924000Y-108492000D01*
X158924000Y-107492000D02*
X158924000Y-103152000D01*
X159924000Y-108492000D02*
X158924000Y-107492000D01*
X163924000Y-103492000D02*
X163924000Y-108492000D01*
X163924000Y-112492000D02*
X164924000Y-113492000D01*
X163924000Y-108492000D02*
X163924000Y-112492000D01*
X103424000Y-103492000D02*
X105964000Y-103492000D01*
X105964000Y-107452000D02*
X105924000Y-107492000D01*
X105964000Y-103492000D02*
X105964000Y-107452000D01*
X97924000Y-97492000D02*
X97924000Y-100492000D01*
X100924000Y-103492000D02*
X103424000Y-103492000D01*
X97924000Y-100492000D02*
X100924000Y-103492000D01*
X167924000Y-93242000D02*
X166464000Y-94702000D01*
X166464000Y-94702000D02*
X166464000Y-95872000D01*
X172424000Y-93242000D02*
X167924000Y-93242000D01*
X173723990Y-94541990D02*
X172424000Y-93242000D01*
X173723990Y-102791990D02*
X173723990Y-94541990D01*
X180924000Y-109992000D02*
X173723990Y-102791990D01*
X146924000Y-91492000D02*
X152424000Y-91492000D01*
X137084000Y-98152000D02*
X137084000Y-95872000D01*
X137924000Y-98992000D02*
X137084000Y-98152000D01*
X148924000Y-98992000D02*
X137924000Y-98992000D01*
X149424000Y-98492000D02*
X148924000Y-98992000D01*
X149424000Y-91992000D02*
X149424000Y-98492000D01*
X148924000Y-91492000D02*
X149424000Y-91992000D01*
X146924000Y-91492000D02*
X148924000Y-91492000D01*
X167424000Y-86992000D02*
X171924000Y-86992000D01*
X192624000Y-103492000D02*
X189624000Y-100492000D01*
X189124000Y-99992000D02*
X192624000Y-103492000D01*
X179674000Y-99992000D02*
X189124000Y-99992000D01*
X175424000Y-95742000D02*
X179674000Y-99992000D01*
X175424000Y-93992000D02*
X175424000Y-95742000D01*
X174424000Y-92992000D02*
X175424000Y-93992000D01*
X174424000Y-86992000D02*
X174424000Y-92992000D01*
X166464000Y-103492000D02*
X166464000Y-101952000D01*
X169004000Y-99412000D02*
X169004000Y-95872000D01*
X166464000Y-101952000D02*
X169004000Y-99412000D01*
X165424000Y-100992000D02*
X157924000Y-100992000D01*
X166464000Y-102032000D02*
X165424000Y-100992000D01*
X166464000Y-103492000D02*
X166464000Y-102032000D01*
X157924000Y-100992000D02*
X154424000Y-104492000D01*
X154424000Y-107992000D02*
X154424000Y-117492000D01*
X157424000Y-120492000D02*
X157424000Y-123652000D01*
X154424000Y-117492000D02*
X157424000Y-120492000D01*
X151924000Y-100992000D02*
X140424000Y-100992000D01*
X139624000Y-101792000D02*
X139624000Y-103492000D01*
X140424000Y-100992000D02*
X139624000Y-101792000D01*
X151924000Y-102492000D02*
X154424000Y-104992000D01*
X154424000Y-104992000D02*
X154424000Y-107992000D01*
X151924000Y-100992000D02*
X151924000Y-102492000D01*
X154424000Y-104492000D02*
X154424000Y-104992000D01*
X169004000Y-103492000D02*
X169004000Y-102162000D01*
X171544000Y-99622000D02*
X171544000Y-95872000D01*
X169004000Y-102162000D02*
X171544000Y-99622000D01*
X169004000Y-113412000D02*
X168924000Y-113492000D01*
X169004000Y-103492000D02*
X169004000Y-113412000D01*
X168924000Y-113492000D02*
X172674000Y-113492000D01*
X164924000Y-119992000D02*
X168924000Y-115992000D01*
X164924000Y-123652000D02*
X164924000Y-119992000D01*
X161424000Y-123652000D02*
X161424000Y-124992000D01*
X161424000Y-124992000D02*
X161924000Y-125492000D01*
X170834000Y-125492000D02*
X172674000Y-123652000D01*
X161924000Y-125492000D02*
X170834000Y-125492000D01*
X172674000Y-123652000D02*
X172674000Y-121742000D01*
X175924000Y-118492000D02*
X179924000Y-118492000D01*
X172674000Y-121742000D02*
X175924000Y-118492000D01*
X157424000Y-113492000D02*
X157424000Y-116492000D01*
X161424000Y-120492000D02*
X161424000Y-123652000D01*
X157424000Y-116492000D02*
X161424000Y-120492000D01*
X157264000Y-86992000D02*
X138424000Y-86992000D01*
X136764000Y-88652000D02*
X136764000Y-91492000D01*
X138424000Y-86992000D02*
X136764000Y-88652000D01*
X139624000Y-95872000D02*
X139624000Y-93192000D01*
X137924000Y-91492000D02*
X136764000Y-91492000D01*
X139624000Y-93192000D02*
X137924000Y-91492000D01*
X192624000Y-92692000D02*
X190424000Y-90492000D01*
X192624000Y-95872000D02*
X192624000Y-92692000D01*
X190424000Y-87652000D02*
X188264000Y-85492000D01*
X190424000Y-90492000D02*
X190424000Y-87652000D01*
X195164000Y-90632000D02*
X195304000Y-90492000D01*
X195164000Y-95872000D02*
X195164000Y-90632000D01*
X195304000Y-88612000D02*
X198424000Y-85492000D01*
X195304000Y-90492000D02*
X195304000Y-88612000D01*
X134544000Y-107112000D02*
X134924000Y-107492000D01*
X134544000Y-103492000D02*
X134544000Y-107112000D01*
X129924000Y-108992000D02*
X131424000Y-107492000D01*
X131424000Y-107492000D02*
X134924000Y-107492000D01*
X132004000Y-103492000D02*
X132004000Y-104412000D01*
X132004000Y-104412000D02*
X129924000Y-106492000D01*
X129924000Y-106492000D02*
X127924000Y-106492000D01*
X127424000Y-106992000D02*
X127424000Y-108992000D01*
X127924000Y-106492000D02*
X127424000Y-106992000D01*
X123924000Y-112332000D02*
X123924000Y-109992000D01*
X123924000Y-109992000D02*
X124924000Y-108992000D01*
X124924000Y-108992000D02*
X127424000Y-108992000D01*
X137084000Y-103492000D02*
X137084000Y-106652000D01*
X137084000Y-106652000D02*
X137924000Y-107492000D01*
X137924000Y-107492000D02*
X137924000Y-113992000D01*
X136924000Y-114992000D02*
X129924000Y-114992000D01*
X137924000Y-113992000D02*
X136924000Y-114992000D01*
X142164000Y-103492000D02*
X142164000Y-110732000D01*
X142924000Y-111492000D02*
X142924000Y-113992000D01*
X142164000Y-110732000D02*
X142924000Y-111492000D01*
X149424000Y-108492000D02*
X146424000Y-108492000D01*
X144704000Y-106772000D02*
X144704000Y-103492000D01*
X146424000Y-108492000D02*
X144704000Y-106772000D01*
D27*
X129424000Y-85952000D02*
X130384000Y-84992000D01*
X129424000Y-88992000D02*
X129424000Y-85952000D01*
X130384000Y-84452000D02*
X130384000Y-82992000D01*
X130384000Y-84992000D02*
X130384000Y-84452000D01*
X129464000Y-91532000D02*
X129424000Y-91492000D01*
X129464000Y-95872000D02*
X129464000Y-91532000D01*
X132924000Y-88992000D02*
X132924000Y-84992000D01*
X132924000Y-84992000D02*
X132924000Y-82992000D01*
X132004000Y-92412000D02*
X132924000Y-91492000D01*
X132004000Y-95872000D02*
X132004000Y-92412000D01*
D28*
X93924000Y-87492000D02*
X96424000Y-87492000D01*
X97924000Y-88992000D02*
X97924000Y-94992000D01*
X96424000Y-87492000D02*
X97924000Y-88992000D01*
X95924000Y-85492000D02*
X93924000Y-87492000D01*
X103424000Y-85492000D02*
X95924000Y-85492000D01*
X111164000Y-92992000D02*
X111044000Y-93112000D01*
X114924000Y-92992000D02*
X111164000Y-92992000D01*
X111044000Y-93112000D02*
X111044000Y-95872000D01*
X111044000Y-91612000D02*
X111044000Y-93112000D01*
X105924000Y-86492000D02*
X111044000Y-91612000D01*
X105924000Y-85492000D02*
X105924000Y-86492000D01*
X97084000Y-113832000D02*
X96924000Y-113992000D01*
X101924000Y-113832000D02*
X97084000Y-113832000D01*
X101924000Y-123992000D02*
X101924000Y-122492000D01*
X103424000Y-120992000D02*
X105924000Y-120992000D01*
X101924000Y-122492000D02*
X103424000Y-120992000D01*
M02*
