%FSLAX45Y45*%
G04 Gerber Fmt 4.5, Leading zero omitted, Abs format (unit mm)*
G04 Created by KiCad (PCBNEW 5.1.8-5.1.8) date 2021-12-06 17:43:24*
%MOMM*%
%LPD*%
G01*
G04 APERTURE LIST*
%TA.AperFunction,Profile*%
%ADD10C,0.100000*%
%TD*%
%ADD11C,0.200000*%
%ADD12C,0.300000*%
G04 APERTURE END LIST*
D10*
X20742400Y-7749200D02*
X20742400Y-12649200D01*
X9042400Y-7749200D02*
X20742400Y-7749200D01*
X9042400Y-12649200D02*
X9042400Y-7749200D01*
X20742400Y-12649200D02*
X9042400Y-12649200D01*
D11*
X20182400Y-7989200D02*
X20502400Y-8309200D01*
X20502400Y-7989200D02*
X20182400Y-8309200D01*
X20182400Y-12089200D02*
X20502400Y-12409200D01*
X20502400Y-12089200D02*
X20182400Y-12409200D01*
X9282400Y-7989200D02*
X9602400Y-8309200D01*
X9602400Y-7989200D02*
X9282400Y-8309200D01*
X9282400Y-12089200D02*
X9602400Y-12409200D01*
X9602400Y-12089200D02*
X9282400Y-12409200D01*
D12*
X9323828Y-13119914D02*
X9323828Y-12819914D01*
X9395257Y-12819914D01*
X9438114Y-12834200D01*
X9466686Y-12862771D01*
X9480971Y-12891343D01*
X9495257Y-12948486D01*
X9495257Y-12991343D01*
X9480971Y-13048486D01*
X9466686Y-13077057D01*
X9438114Y-13105629D01*
X9395257Y-13119914D01*
X9323828Y-13119914D01*
X9623828Y-13119914D02*
X9623828Y-12919914D01*
X9623828Y-12977057D02*
X9638114Y-12948486D01*
X9652400Y-12934200D01*
X9680971Y-12919914D01*
X9709543Y-12919914D01*
X9809543Y-13119914D02*
X9809543Y-12919914D01*
X9809543Y-12819914D02*
X9795257Y-12834200D01*
X9809543Y-12848486D01*
X9823828Y-12834200D01*
X9809543Y-12819914D01*
X9809543Y-12848486D01*
X9995257Y-13119914D02*
X9966686Y-13105629D01*
X9952400Y-13077057D01*
X9952400Y-12819914D01*
X10152400Y-13119914D02*
X10123828Y-13105629D01*
X10109543Y-13077057D01*
X10109543Y-12819914D01*
X10495257Y-13119914D02*
X10495257Y-12819914D01*
X10595257Y-13034200D01*
X10695257Y-12819914D01*
X10695257Y-13119914D01*
X10966686Y-13119914D02*
X10966686Y-12962771D01*
X10952400Y-12934200D01*
X10923828Y-12919914D01*
X10866686Y-12919914D01*
X10838114Y-12934200D01*
X10966686Y-13105629D02*
X10938114Y-13119914D01*
X10866686Y-13119914D01*
X10838114Y-13105629D01*
X10823828Y-13077057D01*
X10823828Y-13048486D01*
X10838114Y-13019914D01*
X10866686Y-13005629D01*
X10938114Y-13005629D01*
X10966686Y-12991343D01*
X11109543Y-12919914D02*
X11109543Y-13219914D01*
X11109543Y-12934200D02*
X11138114Y-12919914D01*
X11195257Y-12919914D01*
X11223828Y-12934200D01*
X11238114Y-12948486D01*
X11252400Y-12977057D01*
X11252400Y-13062771D01*
X11238114Y-13091343D01*
X11223828Y-13105629D01*
X11195257Y-13119914D01*
X11138114Y-13119914D01*
X11109543Y-13105629D01*
X11380971Y-13091343D02*
X11395257Y-13105629D01*
X11380971Y-13119914D01*
X11366686Y-13105629D01*
X11380971Y-13091343D01*
X11380971Y-13119914D01*
X11380971Y-12934200D02*
X11395257Y-12948486D01*
X11380971Y-12962771D01*
X11366686Y-12948486D01*
X11380971Y-12934200D01*
X11380971Y-12962771D01*
X8717400Y-13454200D02*
X9037400Y-13774200D01*
X9037400Y-13454200D02*
X8717400Y-13774200D01*
X9295257Y-13449914D02*
X9480971Y-13449914D01*
X9380971Y-13564200D01*
X9423828Y-13564200D01*
X9452400Y-13578486D01*
X9466686Y-13592771D01*
X9480971Y-13621343D01*
X9480971Y-13692771D01*
X9466686Y-13721343D01*
X9452400Y-13735629D01*
X9423828Y-13749914D01*
X9338114Y-13749914D01*
X9309543Y-13735629D01*
X9295257Y-13721343D01*
X9609543Y-13721343D02*
X9623828Y-13735629D01*
X9609543Y-13749914D01*
X9595257Y-13735629D01*
X9609543Y-13721343D01*
X9609543Y-13749914D01*
X9738114Y-13478486D02*
X9752400Y-13464200D01*
X9780971Y-13449914D01*
X9852400Y-13449914D01*
X9880971Y-13464200D01*
X9895257Y-13478486D01*
X9909543Y-13507057D01*
X9909543Y-13535629D01*
X9895257Y-13578486D01*
X9723828Y-13749914D01*
X9909543Y-13749914D01*
X10095257Y-13449914D02*
X10123828Y-13449914D01*
X10152400Y-13464200D01*
X10166686Y-13478486D01*
X10180971Y-13507057D01*
X10195257Y-13564200D01*
X10195257Y-13635629D01*
X10180971Y-13692771D01*
X10166686Y-13721343D01*
X10152400Y-13735629D01*
X10123828Y-13749914D01*
X10095257Y-13749914D01*
X10066686Y-13735629D01*
X10052400Y-13721343D01*
X10038114Y-13692771D01*
X10023828Y-13635629D01*
X10023828Y-13564200D01*
X10038114Y-13507057D01*
X10052400Y-13478486D01*
X10066686Y-13464200D01*
X10095257Y-13449914D01*
X10323828Y-13749914D02*
X10323828Y-13549914D01*
X10323828Y-13578486D02*
X10338114Y-13564200D01*
X10366686Y-13549914D01*
X10409543Y-13549914D01*
X10438114Y-13564200D01*
X10452400Y-13592771D01*
X10452400Y-13749914D01*
X10452400Y-13592771D02*
X10466686Y-13564200D01*
X10495257Y-13549914D01*
X10538114Y-13549914D01*
X10566686Y-13564200D01*
X10580971Y-13592771D01*
X10580971Y-13749914D01*
X10723828Y-13749914D02*
X10723828Y-13549914D01*
X10723828Y-13578486D02*
X10738114Y-13564200D01*
X10766686Y-13549914D01*
X10809543Y-13549914D01*
X10838114Y-13564200D01*
X10852400Y-13592771D01*
X10852400Y-13749914D01*
X10852400Y-13592771D02*
X10866686Y-13564200D01*
X10895257Y-13549914D01*
X10938114Y-13549914D01*
X10966686Y-13564200D01*
X10980971Y-13592771D01*
X10980971Y-13749914D01*
X11566686Y-13435629D02*
X11309543Y-13821343D01*
X11952400Y-13449914D02*
X11980971Y-13449914D01*
X12009543Y-13464200D01*
X12023828Y-13478486D01*
X12038114Y-13507057D01*
X12052400Y-13564200D01*
X12052400Y-13635629D01*
X12038114Y-13692771D01*
X12023828Y-13721343D01*
X12009543Y-13735629D01*
X11980971Y-13749914D01*
X11952400Y-13749914D01*
X11923828Y-13735629D01*
X11909543Y-13721343D01*
X11895257Y-13692771D01*
X11880971Y-13635629D01*
X11880971Y-13564200D01*
X11895257Y-13507057D01*
X11909543Y-13478486D01*
X11923828Y-13464200D01*
X11952400Y-13449914D01*
X12180971Y-13721343D02*
X12195257Y-13735629D01*
X12180971Y-13749914D01*
X12166686Y-13735629D01*
X12180971Y-13721343D01*
X12180971Y-13749914D01*
X12480971Y-13749914D02*
X12309543Y-13749914D01*
X12395257Y-13749914D02*
X12395257Y-13449914D01*
X12366686Y-13492771D01*
X12338114Y-13521343D01*
X12309543Y-13535629D01*
X12595257Y-13478486D02*
X12609543Y-13464200D01*
X12638114Y-13449914D01*
X12709543Y-13449914D01*
X12738114Y-13464200D01*
X12752400Y-13478486D01*
X12766686Y-13507057D01*
X12766686Y-13535629D01*
X12752400Y-13578486D01*
X12580971Y-13749914D01*
X12766686Y-13749914D01*
X13023828Y-13449914D02*
X12966686Y-13449914D01*
X12938114Y-13464200D01*
X12923828Y-13478486D01*
X12895257Y-13521343D01*
X12880971Y-13578486D01*
X12880971Y-13692771D01*
X12895257Y-13721343D01*
X12909543Y-13735629D01*
X12938114Y-13749914D01*
X12995257Y-13749914D01*
X13023828Y-13735629D01*
X13038114Y-13721343D01*
X13052400Y-13692771D01*
X13052400Y-13621343D01*
X13038114Y-13592771D01*
X13023828Y-13578486D01*
X12995257Y-13564200D01*
X12938114Y-13564200D01*
X12909543Y-13578486D01*
X12895257Y-13592771D01*
X12880971Y-13621343D01*
X13166686Y-13449914D02*
X13166686Y-13507057D01*
X13280971Y-13449914D02*
X13280971Y-13507057D01*
X13723828Y-13864200D02*
X13709543Y-13849914D01*
X13680971Y-13807057D01*
X13666686Y-13778486D01*
X13652400Y-13735629D01*
X13638114Y-13664200D01*
X13638114Y-13607057D01*
X13652400Y-13535629D01*
X13666686Y-13492771D01*
X13680971Y-13464200D01*
X13709543Y-13421343D01*
X13723828Y-13407057D01*
X13966686Y-13549914D02*
X13966686Y-13749914D01*
X13895257Y-13435629D02*
X13823828Y-13649914D01*
X14009543Y-13649914D01*
X14352400Y-13749914D02*
X14352400Y-13449914D01*
X14480971Y-13749914D02*
X14480971Y-13592771D01*
X14466686Y-13564200D01*
X14438114Y-13549914D01*
X14395257Y-13549914D01*
X14366686Y-13564200D01*
X14352400Y-13578486D01*
X14666686Y-13749914D02*
X14638114Y-13735629D01*
X14623828Y-13721343D01*
X14609543Y-13692771D01*
X14609543Y-13607057D01*
X14623828Y-13578486D01*
X14638114Y-13564200D01*
X14666686Y-13549914D01*
X14709543Y-13549914D01*
X14738114Y-13564200D01*
X14752400Y-13578486D01*
X14766686Y-13607057D01*
X14766686Y-13692771D01*
X14752400Y-13721343D01*
X14738114Y-13735629D01*
X14709543Y-13749914D01*
X14666686Y-13749914D01*
X14938114Y-13749914D02*
X14909543Y-13735629D01*
X14895257Y-13707057D01*
X14895257Y-13449914D01*
X15166686Y-13735629D02*
X15138114Y-13749914D01*
X15080971Y-13749914D01*
X15052400Y-13735629D01*
X15038114Y-13707057D01*
X15038114Y-13592771D01*
X15052400Y-13564200D01*
X15080971Y-13549914D01*
X15138114Y-13549914D01*
X15166686Y-13564200D01*
X15180971Y-13592771D01*
X15180971Y-13621343D01*
X15038114Y-13649914D01*
X15295257Y-13735629D02*
X15323828Y-13749914D01*
X15380971Y-13749914D01*
X15409543Y-13735629D01*
X15423828Y-13707057D01*
X15423828Y-13692771D01*
X15409543Y-13664200D01*
X15380971Y-13649914D01*
X15338114Y-13649914D01*
X15309543Y-13635629D01*
X15295257Y-13607057D01*
X15295257Y-13592771D01*
X15309543Y-13564200D01*
X15338114Y-13549914D01*
X15380971Y-13549914D01*
X15409543Y-13564200D01*
X15523828Y-13864200D02*
X15538114Y-13849914D01*
X15566686Y-13807057D01*
X15580971Y-13778486D01*
X15595257Y-13735629D01*
X15609543Y-13664200D01*
X15609543Y-13607057D01*
X15595257Y-13535629D01*
X15580971Y-13492771D01*
X15566686Y-13464200D01*
X15538114Y-13421343D01*
X15523828Y-13407057D01*
X16066686Y-13864200D02*
X16052400Y-13849914D01*
X16023828Y-13807057D01*
X16009543Y-13778486D01*
X15995257Y-13735629D01*
X15980971Y-13664200D01*
X15980971Y-13607057D01*
X15995257Y-13535629D01*
X16009543Y-13492771D01*
X16023828Y-13464200D01*
X16052400Y-13421343D01*
X16066686Y-13407057D01*
X16180971Y-13549914D02*
X16180971Y-13749914D01*
X16180971Y-13578486D02*
X16195257Y-13564200D01*
X16223828Y-13549914D01*
X16266686Y-13549914D01*
X16295257Y-13564200D01*
X16309543Y-13592771D01*
X16309543Y-13749914D01*
X16495257Y-13749914D02*
X16466686Y-13735629D01*
X16452400Y-13721343D01*
X16438114Y-13692771D01*
X16438114Y-13607057D01*
X16452400Y-13578486D01*
X16466686Y-13564200D01*
X16495257Y-13549914D01*
X16538114Y-13549914D01*
X16566686Y-13564200D01*
X16580971Y-13578486D01*
X16595257Y-13607057D01*
X16595257Y-13692771D01*
X16580971Y-13721343D01*
X16566686Y-13735629D01*
X16538114Y-13749914D01*
X16495257Y-13749914D01*
X16680971Y-13549914D02*
X16795257Y-13549914D01*
X16723828Y-13449914D02*
X16723828Y-13707057D01*
X16738114Y-13735629D01*
X16766686Y-13749914D01*
X16795257Y-13749914D01*
X17123828Y-13549914D02*
X17123828Y-13849914D01*
X17123828Y-13564200D02*
X17152400Y-13549914D01*
X17209543Y-13549914D01*
X17238114Y-13564200D01*
X17252400Y-13578486D01*
X17266686Y-13607057D01*
X17266686Y-13692771D01*
X17252400Y-13721343D01*
X17238114Y-13735629D01*
X17209543Y-13749914D01*
X17152400Y-13749914D01*
X17123828Y-13735629D01*
X17438114Y-13749914D02*
X17409543Y-13735629D01*
X17395257Y-13707057D01*
X17395257Y-13449914D01*
X17680971Y-13749914D02*
X17680971Y-13592771D01*
X17666686Y-13564200D01*
X17638114Y-13549914D01*
X17580971Y-13549914D01*
X17552400Y-13564200D01*
X17680971Y-13735629D02*
X17652400Y-13749914D01*
X17580971Y-13749914D01*
X17552400Y-13735629D01*
X17538114Y-13707057D01*
X17538114Y-13678486D01*
X17552400Y-13649914D01*
X17580971Y-13635629D01*
X17652400Y-13635629D01*
X17680971Y-13621343D01*
X17780971Y-13549914D02*
X17895257Y-13549914D01*
X17823828Y-13449914D02*
X17823828Y-13707057D01*
X17838114Y-13735629D01*
X17866686Y-13749914D01*
X17895257Y-13749914D01*
X18109543Y-13735629D02*
X18080971Y-13749914D01*
X18023828Y-13749914D01*
X17995257Y-13735629D01*
X17980971Y-13707057D01*
X17980971Y-13592771D01*
X17995257Y-13564200D01*
X18023828Y-13549914D01*
X18080971Y-13549914D01*
X18109543Y-13564200D01*
X18123828Y-13592771D01*
X18123828Y-13621343D01*
X17980971Y-13649914D01*
X18380971Y-13749914D02*
X18380971Y-13449914D01*
X18380971Y-13735629D02*
X18352400Y-13749914D01*
X18295257Y-13749914D01*
X18266686Y-13735629D01*
X18252400Y-13721343D01*
X18238114Y-13692771D01*
X18238114Y-13607057D01*
X18252400Y-13578486D01*
X18266686Y-13564200D01*
X18295257Y-13549914D01*
X18352400Y-13549914D01*
X18380971Y-13564200D01*
X18495257Y-13864200D02*
X18509543Y-13849914D01*
X18538114Y-13807057D01*
X18552400Y-13778486D01*
X18566686Y-13735629D01*
X18580971Y-13664200D01*
X18580971Y-13607057D01*
X18566686Y-13535629D01*
X18552400Y-13492771D01*
X18538114Y-13464200D01*
X18509543Y-13421343D01*
X18495257Y-13407057D01*
M02*
